<svg viewBox="0 0 58 58" fill="none" xmlns="http://www.w3.org/2000/svg">
    <rect width="58" height="58" rx="15" fill="white"/>
    <path d="M40.2051 23.344C39.7349 21.8971 38.1791 21.0209 36.7472 20.82C31.5969 20.2729 26.4031 20.2729 21.2528 20.82C19.8209 21.0209 18.2608 21.8886 17.7949 23.344C17.0619 27.079 17.0619 30.9209 17.7949 34.656C18.2651 36.1007 19.8209 36.979 21.2528 37.1799C26.4031 37.7271 31.5969 37.7271 36.7472 37.1799C38.1791 36.979 39.7392 36.1114 40.2051 34.656C40.9381 30.9209 40.9381 27.079 40.2051 23.344ZM26.1875 33.504V24.4938L33.5222 28.9989C31.0495 30.5184 28.6495 31.9909 26.1875 33.504Z"
          fill="#E60000"/>
</svg>
