<svg width="30" height="30" viewBox="0 0 30 30" fill="none" xmlns="http://www.w3.org/2000/svg">
<path d="M14.9401 24.9999H8.18709C7.35429 24.9999 6.86464 24.5218 6.87618 23.6907C6.88598 22.9369 6.86176 22.1757 6.95865 21.4311C7.23836 19.2793 9.07584 17.4147 11.2138 17.0548C11.5249 16.9987 11.8401 16.9681 12.1562 16.9631C14.0479 16.9556 15.939 16.9435 17.8301 16.9631C20.483 16.9931 22.7934 19.1922 22.9659 21.8435C23.0086 22.4952 23.0028 23.1515 22.993 23.8044C22.9814 24.5126 22.4739 24.993 21.7576 24.9936C19.4853 24.9993 17.2128 25.0015 14.9401 24.9999Z" fill="#A13652"/>
<path d="M14.9334 9.054C16.2022 9.04488 17.4633 9.25201 18.6626 9.66649C19.0455 9.80087 19.2595 10.0483 19.342 10.4462C19.8333 12.8333 18.3413 15.1922 15.9802 15.7522C13.604 16.3128 11.1887 14.8507 10.5785 12.4838C10.4057 11.8117 10.3893 11.1089 10.5306 10.4295C10.6091 10.0368 10.8294 9.7951 11.2066 9.66937C12.4047 9.25342 13.6651 9.0453 14.9334 9.054Z" fill="#A13652"/>
<path fill-rule="evenodd" clip-rule="evenodd" d="M19.3638 5.33687C18.0391 4.40371 16.5546 4.02826 14.7667 4C14.7019 4.00591 14.6231 4.01157 14.5343 4.01794C14.2938 4.03522 13.9796 4.05779 13.6692 4.10497C12.4419 4.29067 11.3115 4.71803 10.3189 5.48336C10.1459 5.61889 10.0969 5.75558 10.1459 5.96493C10.2756 6.5236 10.4004 7.08346 10.5253 7.64328C10.5943 7.95266 10.6632 8.26203 10.733 8.57119C10.8126 8.92299 10.9216 8.98067 11.2677 8.87339C13.7146 8.1148 16.1618 8.11345 18.6095 8.86936C18.9665 8.97951 19.0807 8.91665 19.158 8.55792C19.2088 8.32212 19.2578 8.08576 19.3068 7.84938C19.4239 7.28385 19.5412 6.71813 19.6839 6.15929C19.782 5.77518 19.6776 5.55776 19.3638 5.33687ZM15.2646 5.03821C15.2965 5.03821 15.3223 5.06403 15.3223 5.09588V5.87669H16.1031C16.135 5.87669 16.1608 5.90251 16.1608 5.93436V6.56433C16.1608 6.59618 16.135 6.62201 16.1031 6.62201H15.3223V7.40281C15.3223 7.43466 15.2965 7.46049 15.2646 7.46049H14.6346C14.6028 7.46049 14.577 7.43466 14.577 7.40281V6.62201H13.7962C13.7643 6.62201 13.7385 6.59618 13.7385 6.56433V5.93436C13.7385 5.90251 13.7643 5.87669 13.7962 5.87669H14.577V5.09588C14.577 5.06403 14.6028 5.03821 14.6346 5.03821H15.2646Z" fill="#A13652"/>
</svg>
