<svg width="30" height="30" viewBox="0 0 30 30" fill="none" xmlns="http://www.w3.org/2000/svg">
<path d="M4.93593 11.8431C4.06691 11.4322 4.06695 10.1958 4.93593 9.78486L14.3332 5.34119C14.7533 5.14254 15.2403 5.14254 15.6604 5.34119L25.0577 9.78486C25.8168 10.1438 25.9128 11.1326 25.3457 11.6509V15.9885C25.3457 16.5601 24.8824 17.0234 24.3108 17.0234C23.7393 17.0234 23.2759 16.5601 23.2759 15.9885V12.6857L15.6604 16.2868C15.2403 16.4854 14.7533 16.4854 14.3332 16.2868L4.93593 11.8431Z" fill="#A13652"/>
<path d="M7.75241 17.0234V15.2449L14.3332 18.3568C14.7533 18.5554 15.2403 18.5554 15.6604 18.3568L22.241 15.245V17.0234C22.241 21.0243 18.9976 24.2677 14.9967 24.2677C10.9958 24.2677 7.75241 21.0243 7.75241 17.0234Z" fill="#A13652"/>
</svg>
