<svg width="31" height="30" viewBox="0 0 31 30" fill="none" xmlns="http://www.w3.org/2000/svg">
<path d="M17.7242 17.2305C17.2528 17.5448 16.7052 17.7109 16.1407 17.7109C15.5762 17.7109 15.0286 17.5448 14.5572 17.2305L6.79315 12.0543C6.75029 12.0257 6.70822 11.9958 6.66699 11.9649V20.4467C6.66699 21.4191 7.45616 22.1909 8.41122 22.1909H23.8701C24.8426 22.1909 25.6143 21.4017 25.6143 20.4467V11.9648C25.573 11.9959 25.5309 12.0258 25.4879 12.0545L17.7242 17.2305Z" fill="#A13652"/>
<path d="M7.40898 11.1305L15.1731 16.3067C15.467 16.5027 15.8038 16.6006 16.1406 16.6006C16.4775 16.6006 16.8144 16.5026 17.1083 16.3067L24.8724 11.1305C25.337 10.8209 25.6144 10.3028 25.6144 9.74364C25.6144 8.78217 24.8322 8 23.8707 8H8.41063C7.4492 8.00004 6.66699 8.78221 6.66699 9.74456C6.6667 10.0189 6.73431 10.289 6.86377 10.5308C6.99324 10.7726 7.18054 10.9786 7.40898 11.1305Z" fill="#A13652"/>
</svg>
