<svg width="30" height="30" viewBox="0 0 30 30" fill="none" xmlns="http://www.w3.org/2000/svg">
<path d="M7.81492 14.07C7.81492 15.5269 6.63182 16.7046 5.18034 16.7046C3.72885 16.7046 2.54575 15.5215 2.54575 14.07C2.54575 12.6185 3.72337 11.4354 5.18034 11.4354C6.6373 11.4354 7.81492 12.613 7.81492 14.07ZM7.54653 19.6623C7.54653 18.9174 7.71085 18.2108 8.01211 17.5754C7.62869 17.3947 7.20146 17.2906 6.74685 17.2906H3.60835C1.96516 17.2906 0.639648 18.6216 0.639648 20.2593V20.9385C0.639648 21.4315 1.03949 21.8313 1.53245 21.8313H7.97376C7.71085 21.4917 7.55201 21.059 7.55201 20.5989L7.54653 19.6623ZM24.0935 11.4354C22.6365 11.4354 21.4589 12.6185 21.4589 14.07C21.4589 15.5215 22.6365 16.7046 24.0935 16.7046C25.5504 16.7046 26.7281 15.5215 26.7281 14.07C26.7281 12.6185 25.545 11.4354 24.0935 11.4354ZM25.66 17.2906H22.5215C22.0669 17.2906 21.6396 17.3947 21.2562 17.5754C21.5575 18.2108 21.7218 18.9174 21.7218 19.6623V20.5989C21.7218 21.0645 21.5684 21.4917 21.3055 21.8313H27.7468C28.2398 21.8313 28.6396 21.4315 28.6396 20.9385V20.2593C28.6287 18.6216 27.3032 17.2906 25.66 17.2906ZM14.6342 7.43695C12.6185 7.43695 10.9863 9.06919 10.9863 11.0848C10.9863 13.1005 12.6185 14.7327 14.6342 14.7327C16.6498 14.7327 18.2821 13.1005 18.2821 11.0848C18.2821 9.06919 16.6498 7.43695 14.6342 7.43695ZM20.9221 20.5989V19.6623C20.9221 17.3892 19.0817 15.5488 16.8087 15.5488H12.4652C10.1921 15.5488 8.3517 17.3892 8.3517 19.6623V20.5989C8.3517 21.2781 8.90491 21.8313 9.58409 21.8313H19.6897C20.3689 21.8313 20.9221 21.2781 20.9221 20.5989Z" fill="#A13652"/>
</svg>
