<svg viewBox="0 0 24 24" fill="none" xmlns="http://www.w3.org/2000/svg">
    <path fill-rule="evenodd" clip-rule="evenodd"
          d="M16.5064 18.0989C16.9458 18.5382 17.6581 18.5382 18.0974 18.0989C18.5368 17.6595 18.5368 16.9472 18.0974 16.5079L13.5896 12.0001L18.0974 7.49228C18.5368 7.05294 18.5368 6.34063 18.0974 5.90129C17.6581 5.46195 16.9458 5.46195 16.5064 5.90129L11.9986 10.4091L7.49081 5.90128C7.05147 5.46194 6.33916 5.46194 5.89982 5.90128C5.46048 6.34062 5.46048 7.05293 5.89982 7.49228L10.4076 12.0001L5.89982 16.5079C5.46048 16.9472 5.46048 17.6595 5.89982 18.0989C6.33916 18.5382 7.05147 18.5382 7.49081 18.0989L11.9986 13.5911L16.5064 18.0989Z"
          fill="#667085"/>
</svg>
