<svg viewBox="0 0 16 16" fill="none" xmlns="http://www.w3.org/2000/svg">
    <path d="M12.7541 2.5L3.24589 2.5C3.00451 2.50018 2.76838 2.56836 2.56614 2.69624C2.36391 2.82412 2.20428 3.00622 2.10662 3.22043C2.00895 3.43465 1.97746 3.67176 2.01596 3.903C2.05447 4.13425 2.16131 4.34967 2.32352 4.52314L6.44419 8.92098L6.44419 13.0686C6.44423 13.1497 6.46781 13.2291 6.51223 13.2978C6.55665 13.3665 6.62011 13.4216 6.69534 13.4569C6.75547 13.4856 6.82167 13.5004 6.88871 13.5C6.98974 13.4999 7.08773 13.4664 7.16653 13.4051L8 12.758L9.38912 11.6796C9.4411 11.6392 9.48306 11.588 9.51192 11.5298C9.54077 11.4715 9.55577 11.4078 9.55581 11.3431L9.55581 8.92098L13.6765 4.52314C13.8387 4.34967 13.9455 4.13425 13.984 3.903C14.0225 3.67176 13.991 3.43465 13.8934 3.22043C13.7957 3.00622 13.6361 2.82412 13.4339 2.69624C13.2316 2.56836 12.9955 2.50018 12.7541 2.5Z"
          fill="white"/>
</svg>
