<svg width="30" height="30" viewBox="0 0 30 30" fill="none" xmlns="http://www.w3.org/2000/svg">
<path d="M12.4554 5.54929C11.7356 6.2691 11.0223 6.60329 9.99609 6.60329C9.10005 6.60329 7.82523 6.42951 7.125 7.13563C6.43031 7.83616 6.60331 9.10574 6.60331 9.99606C6.60331 11.0223 6.2691 11.7356 5.54927 12.4554C4.34976 13.6549 3.75001 14.2547 3.75 15C3.75002 15.7452 4.34978 16.3451 5.5493 17.5446C6.35568 18.3509 6.60331 18.8716 6.60331 20.0039C6.60331 20.9 6.42953 22.1748 7.13568 22.875C7.83621 23.5697 9.10576 23.3967 9.99607 23.3967C11.0889 23.3967 11.6152 23.6104 12.3951 24.3904C13.0593 25.0546 13.9496 26.25 15 26.25C16.0504 26.25 16.9407 25.0545 17.6049 24.3904C18.3848 23.6104 18.9111 23.3967 20.0039 23.3967C20.8942 23.3967 22.1638 23.5697 22.8643 22.875C23.5705 22.1748 23.3967 20.8999 23.3967 20.0039C23.3967 18.8716 23.6443 18.3509 24.4507 17.5446C25.6502 16.3451 26.25 15.7452 26.25 15C26.25 14.2547 25.6502 13.6549 24.4507 12.4554C23.6444 11.649 23.3967 11.1284 23.3967 9.99606C23.3967 9.10004 23.5705 7.82524 22.8644 7.125C22.1638 6.43028 20.8942 6.60329 20.0039 6.60329C18.9774 6.60329 18.2642 6.26895 17.5446 5.54929C16.3451 4.34976 15.7453 3.75 15 3.75C14.2547 3.75 13.6549 4.34976 12.4554 5.54929Z" fill="#254885"/>
<path d="M11.625 16.0045C11.625 16.0045 12.975 16.7377 13.65 17.8125C13.65 17.8125 15.675 13.5938 18.375 12.1875" stroke="white" stroke-width="1.875" stroke-linecap="round" stroke-linejoin="round"/>
</svg>
