<svg width="24" height="25" viewBox="0 0 24 25" fill="none" xmlns="http://www.w3.org/2000/svg">
<path d="M19.8063 17.7796V8.8199C19.8063 7.33029 19.8063 6.58504 19.5704 5.99025C19.1895 5.03295 18.3853 4.2789 17.3655 3.92256C16.732 3.69995 15.9375 3.69995 14.3493 3.69995C11.5698 3.69995 10.1805 3.69995 9.07011 4.08797C7.28661 4.71268 5.87882 6.03248 5.21364 7.70775C4.80011 8.74863 4.80011 10.0526 4.80011 12.6605V14.8998C4.79923 17.601 4.79923 18.9516 5.54799 19.8895C5.7618 20.1588 6.01608 20.3972 6.30292 20.5978C7.22502 21.2463 8.52195 21.2964 10.9785 21.3" stroke="white" stroke-width="2" stroke-linecap="round" stroke-linejoin="round"/>
<path d="M4.80078 12.4819C4.80078 10.863 6.19097 9.56603 7.81081 9.56603C8.3968 9.56603 9.08662 9.6681 9.65677 9.51588C9.90541 9.44901 10.1321 9.31799 10.3142 9.13592C10.4962 8.95386 10.6273 8.72716 10.6941 8.47851C10.8464 7.90924 10.7434 7.21854 10.7434 6.63255C10.7434 6.24736 10.8193 5.86595 10.9667 5.51009C11.1142 5.15423 11.3302 4.83091 11.6027 4.55858C11.8751 4.28625 12.1985 4.07025 12.5544 3.92293C12.9103 3.7756 13.2917 3.69984 13.6769 3.69995" stroke="white" stroke-width="2" stroke-linecap="round" stroke-linejoin="round"/>
</svg>
