<svg width="25" height="25" viewBox="0 0 25 25" fill="none" xmlns="http://www.w3.org/2000/svg">
<rect width="25" height="25" rx="12.5" fill="#F2F4F7"/>
<path fill-rule="evenodd" clip-rule="evenodd" d="M15.5051 16.5659C15.798 16.8588 16.2729 16.8588 16.5658 16.5659C16.8586 16.273 16.8586 15.7981 16.5658 15.5052L13.5605 12.5L16.5658 9.49481C16.8586 9.20191 16.8586 8.72704 16.5658 8.43415C16.2729 8.14125 15.798 8.14125 15.5051 8.43415L12.4999 11.4394L9.49469 8.43415C9.20179 8.14125 8.72692 8.14125 8.43403 8.43415C8.14113 8.72704 8.14113 9.20191 8.43403 9.49481L11.4392 12.5L8.43403 15.5052C8.14113 15.7981 8.14113 16.273 8.43403 16.5659C8.72692 16.8588 9.20179 16.8588 9.49469 16.5659L12.4999 13.5607L15.5051 16.5659Z" fill="#667085"/>
</svg>
