<svg width="170" height="74" viewBox="0 0 170 74" fill="none" xmlns="http://www.w3.org/2000/svg">
    <path d="M51.8633 55.3575H167.29V53.0019H51.8633V55.3575Z" fill="black" mask="url(#path-1-inside-1_4381_28216)"/>
    <path d="M53.7204 71.0315V69.6663H54.3377C54.5954 69.6663 54.8078 69.6228 54.9751 69.5358C55.1458 69.4488 55.2846 69.3317 55.3917 69.1845C55.5021 69.0339 55.5942 68.8699 55.6678 68.6926L55.8133 68.3262L52.1996 60.6118H53.8458L56.5411 66.5544L58.9402 60.6118H60.5664L57.0129 69.1092C56.8623 69.4505 56.6883 69.7667 56.4909 70.0578C56.2968 70.3489 56.0375 70.5848 55.7129 70.7655C55.3884 70.9428 54.9584 71.0315 54.423 71.0315H53.7204ZM66.9282 63.1816V70.891H65.4626V63.1816H66.9282ZM66.2907 66.7602V68.0552C66.0598 68.1488 65.8156 68.2325 65.5579 68.3061C65.3003 68.3764 65.0293 68.4316 64.7448 68.4717C64.4604 68.5119 64.1643 68.532 63.8565 68.532C62.9028 68.532 62.1449 68.2994 61.5828 67.8343C61.0207 67.3659 60.7396 66.6498 60.7396 65.6861V63.1665H62.2001V65.6861C62.2001 66.0509 62.2671 66.347 62.4009 66.5745C62.5348 66.802 62.7255 66.9694 62.9731 67.0764C63.2207 67.1835 63.5152 67.237 63.8565 67.237C64.3082 67.237 64.7248 67.1952 65.1062 67.1116C65.491 67.0246 65.8859 66.9074 66.2907 66.7602ZM72.2472 71.0465C71.4876 71.0465 70.8334 70.8843 70.2847 70.5597C69.7393 70.2318 69.3177 69.7717 69.0199 69.1794C68.7254 68.5838 68.5782 67.8862 68.5782 67.0865C68.5782 66.2968 68.7254 65.6008 69.0199 64.9985C69.3177 64.3962 69.7326 63.9261 70.2646 63.5881C70.8 63.2502 71.4257 63.0812 72.1418 63.0812C72.5768 63.0812 72.9984 63.1532 73.4066 63.297C73.8148 63.4409 74.1812 63.6668 74.5058 63.9746C74.8303 64.2825 75.0863 64.6823 75.2737 65.1742C75.4611 65.6627 75.5548 66.2566 75.5548 66.956V67.488H69.4264V66.3637H74.0842C74.0842 65.9689 74.0039 65.6192 73.8432 65.3147C73.6826 65.0069 73.4568 64.7643 73.1657 64.5869C72.8779 64.4096 72.5399 64.3209 72.1518 64.3209C71.7302 64.3209 71.3621 64.4247 71.0476 64.6321C70.7364 64.8362 70.4955 65.1039 70.3248 65.4352C70.1575 65.7631 70.0739 66.1194 70.0739 66.5042V67.3826C70.0739 67.8979 70.1642 68.3362 70.3449 68.6976C70.529 69.059 70.7849 69.335 71.1128 69.5258C71.4408 69.7131 71.8239 69.8068 72.2622 69.8068C72.5466 69.8068 72.806 69.7667 73.0402 69.6864C73.2744 69.6027 73.4768 69.4789 73.6475 69.315C73.8181 69.151 73.9486 68.9486 74.039 68.7076L75.4594 68.9636C75.3456 69.3819 75.1415 69.7483 74.8471 70.0628C74.556 70.374 74.1896 70.6166 73.7479 70.7906C73.3095 70.9612 72.8093 71.0465 72.2472 71.0465ZM83.1675 60.3107L83.7899 61.2593C83.559 61.4701 83.2963 61.6206 83.0019 61.711C82.7108 61.798 82.3745 61.8532 81.993 61.8766C81.6116 61.8967 81.1749 61.9151 80.683 61.9318C80.1276 61.9486 79.6709 62.069 79.3128 62.2932C78.9548 62.514 78.6787 62.842 78.4847 63.277C78.2939 63.7086 78.1701 64.2507 78.1133 64.9031H78.2086C78.4596 64.4247 78.8076 64.0666 79.2526 63.8291C79.701 63.5915 80.2046 63.4727 80.7633 63.4727C81.3857 63.4727 81.9395 63.6149 82.4247 63.8993C82.9099 64.1837 83.2913 64.6003 83.569 65.1491C83.8501 65.6945 83.9906 66.362 83.9906 67.1517C83.9906 67.9514 83.8434 68.6424 83.549 69.2246C83.2578 69.8068 82.8463 70.2569 82.3143 70.5747C81.7856 70.8893 81.1615 71.0465 80.4421 71.0465C79.7227 71.0465 79.0953 70.8843 78.56 70.5597C78.0279 70.2318 77.6147 69.7466 77.3202 69.1041C77.0291 68.4617 76.8836 67.6687 76.8836 66.7251V65.9622C76.8836 64.1988 77.1981 62.8721 77.8272 61.982C78.4562 61.092 79.3965 60.6352 80.6479 60.6118C81.0528 60.6018 81.4142 60.6001 81.732 60.6068C82.0499 60.6101 82.3276 60.5951 82.5652 60.5616C82.8061 60.5248 83.0069 60.4412 83.1675 60.3107ZM80.4471 69.7867C80.8654 69.7867 81.2251 69.6813 81.5263 69.4705C81.8307 69.2564 82.065 68.9536 82.2289 68.5621C82.3929 68.1706 82.4749 67.7088 82.4749 67.1768C82.4749 66.6548 82.3929 66.2115 82.2289 65.8467C82.065 65.482 81.8307 65.2043 81.5263 65.0136C81.2218 64.8195 80.857 64.7225 80.4321 64.7225C80.1176 64.7225 79.8365 64.7777 79.5889 64.8881C79.3413 64.9952 79.1288 65.1541 78.9514 65.3649C78.7775 65.5757 78.6419 65.8334 78.5449 66.1379C78.4512 66.439 78.401 66.7853 78.3943 67.1768C78.3943 67.9732 78.5767 68.6073 78.9414 69.0791C79.3095 69.5508 79.8114 69.7867 80.4471 69.7867ZM90.8919 66.3888V67.6888H86.716V66.3888H90.8919ZM87.1376 63.1816V70.891H85.667V63.1816H87.1376ZM91.9409 63.1816V70.891H90.4753V63.1816H91.9409ZM95.0779 65.8317H97.3164C98.26 65.8317 98.9861 66.0659 99.4947 66.5344C100.003 67.0028 100.258 67.6068 100.258 68.3463C100.258 68.8281 100.144 69.2614 99.9163 69.6462C99.6888 70.031 99.3558 70.3355 98.9175 70.5597C98.4792 70.7805 97.9455 70.891 97.3164 70.891H93.9486V63.1816H95.4192V69.596H97.3164C97.748 69.596 98.1027 69.4839 98.3804 69.2597C98.6582 69.0322 98.797 68.7428 98.797 68.3914C98.797 68.02 98.6582 67.7172 98.3804 67.483C98.1027 67.2454 97.748 67.1266 97.3164 67.1266H95.0779V65.8317ZM101.352 70.891V63.1816H102.852V70.891H101.352ZM106.337 68.7879L109.735 63.1816H111.351V70.891H109.88V65.2796L106.498 70.891H104.866V63.1816H106.337V68.7879ZM109.092 60.5717H110.327C110.327 61.1371 110.126 61.5972 109.725 61.9519C109.327 62.3032 108.788 62.4789 108.109 62.4789C107.433 62.4789 106.896 62.3032 106.498 61.9519C106.099 61.5972 105.9 61.1371 105.9 60.5717H107.13C107.13 60.8226 107.204 61.0451 107.351 61.2392C107.498 61.4299 107.751 61.5253 108.109 61.5253C108.46 61.5253 108.711 61.4299 108.862 61.2392C109.016 61.0485 109.092 60.826 109.092 60.5717ZM123.398 63.1816V69.6613H124.528V73.3754H123.047V70.891H117.109V63.1816H118.58V69.596H121.933V63.1816H123.398ZM129.431 71.0465C128.672 71.0465 128.017 70.8843 127.469 70.5597C126.923 70.2318 126.502 69.7717 126.204 69.1794C125.909 68.5838 125.762 67.8862 125.762 67.0865C125.762 66.2968 125.909 65.6008 126.204 64.9985C126.502 64.3962 126.917 63.9261 127.449 63.5881C127.984 63.2502 128.61 63.0812 129.326 63.0812C129.761 63.0812 130.182 63.1532 130.591 63.297C130.999 63.4409 131.365 63.6668 131.69 63.9746C132.014 64.2825 132.27 64.6823 132.458 65.1742C132.645 65.6627 132.739 66.2566 132.739 66.956V67.488H126.61V66.3637H131.268C131.268 65.9689 131.188 65.6192 131.027 65.3147C130.867 65.0069 130.641 64.7643 130.35 64.5869C130.062 64.4096 129.724 64.3209 129.336 64.3209C128.914 64.3209 128.546 64.4247 128.232 64.6321C127.92 64.8362 127.68 65.1039 127.509 65.4352C127.342 65.7631 127.258 66.1194 127.258 66.5042V67.3826C127.258 67.8979 127.348 68.3362 127.529 68.6976C127.713 69.059 127.969 69.335 128.297 69.5258C128.625 69.7131 129.008 69.8068 129.446 69.8068C129.731 69.8068 129.99 69.7667 130.224 69.6864C130.458 69.6027 130.661 69.4789 130.832 69.315C131.002 69.151 131.133 68.9486 131.223 68.7076L132.643 68.9636C132.53 69.3819 132.326 69.7483 132.031 70.0628C131.74 70.374 131.374 70.6166 130.932 70.7906C130.494 70.9612 129.993 71.0465 129.431 71.0465ZM139.629 66.3888V67.6888H135.453V66.3888H139.629ZM135.874 63.1816V70.891H134.404V63.1816H135.874ZM140.678 63.1816V70.891H139.212V63.1816H140.678ZM141.729 64.4765V63.1816H148.234V64.4765H145.719V70.891H144.254V64.4765H141.729ZM149.821 73.782V63.1816H151.287V64.4314H151.412C151.499 64.2707 151.625 64.085 151.789 63.8742C151.953 63.6634 152.18 63.4794 152.471 63.3221C152.763 63.1615 153.147 63.0812 153.626 63.0812C154.248 63.0812 154.804 63.2385 155.292 63.553C155.781 63.8675 156.164 64.3209 156.442 64.9132C156.723 65.5054 156.863 66.2182 156.863 67.0513C156.863 67.8845 156.724 68.5989 156.447 69.1945C156.169 69.7867 155.787 70.2435 155.302 70.5647C154.817 70.8826 154.263 71.0415 153.641 71.0415C153.172 71.0415 152.789 70.9629 152.492 70.8056C152.197 70.6484 151.966 70.4643 151.799 70.2535C151.632 70.0427 151.503 69.8553 151.412 69.6914H151.322V73.782H149.821ZM151.292 67.0363C151.292 67.5783 151.371 68.0535 151.528 68.4617C151.685 68.8699 151.913 69.1895 152.21 69.4204C152.508 69.6479 152.873 69.7617 153.305 69.7617C153.753 69.7617 154.128 69.6429 154.429 69.4053C154.73 69.1644 154.958 68.8381 155.112 68.4266C155.269 68.015 155.347 67.5516 155.347 67.0363C155.347 66.5277 155.27 66.0709 155.117 65.6661C154.966 65.2612 154.738 64.9416 154.434 64.7074C154.133 64.4732 153.756 64.3561 153.305 64.3561C152.87 64.3561 152.502 64.4682 152.2 64.6923C151.903 64.9165 151.677 65.2294 151.523 65.6309C151.369 66.0324 151.292 66.5009 151.292 67.0363Z"
          fill="#A13652"/>
    <path fill-rule="evenodd" clip-rule="evenodd"
          d="M105.926 46.2736H104.03C103.94 46.2736 103.854 46.2394 103.791 46.1784C103.727 46.1175 103.692 46.0349 103.692 45.9487V6.28464C103.689 5.95283 103.754 5.62374 103.884 5.31636C104.014 5.00898 104.207 4.7294 104.45 4.49377C104.694 4.25813 104.983 4.07109 105.302 3.94346C105.621 3.81582 105.964 3.75011 106.309 3.75013H110.62C111.505 3.6648 112.398 3.779 113.228 4.08363C114.059 4.38827 114.804 4.87491 115.404 5.50479C116.423 6.8785 116.924 8.54383 116.826 10.2272V24.1562C116.883 25.5886 116.54 27.0097 115.833 28.2721C115.507 28.8057 115.073 29.2719 114.558 29.6438C114.043 30.0156 113.456 30.2857 112.831 30.4383L117.21 45.927C117.233 45.9705 117.246 46.0188 117.246 46.0678C117.246 46.1169 117.233 46.1652 117.21 46.2086C117.181 46.253 117.141 46.29 117.094 46.3164C117.046 46.3428 116.993 46.3578 116.939 46.3603H114.998C114.92 46.3579 114.845 46.3314 114.784 46.2845C114.723 46.2376 114.679 46.173 114.659 46.1003L110.53 31.4565C110.471 31.2523 110.344 31.072 110.169 30.9431C109.994 30.8141 109.78 30.7434 109.559 30.7416H106.693C106.581 30.7469 106.475 30.7919 106.396 30.868C106.317 30.9441 106.27 31.0457 106.264 31.1532V46.0353C106.244 46.1058 106.2 46.1677 106.138 46.2109C106.077 46.2542 106.002 46.2763 105.926 46.2736ZM106.467 6.21965C106.409 6.22453 106.355 6.24892 106.313 6.28854C106.272 6.32815 106.247 6.38046 106.242 6.43628V28.0988H110.755C111.242 28.1437 111.734 28.07 112.183 27.8845C112.633 27.6989 113.027 27.4076 113.328 27.0373C113.849 26.2721 114.117 25.3734 114.095 24.4595V9.88062C114.117 8.95986 113.85 8.05416 113.328 7.28111C113.026 6.90598 112.629 6.61143 112.174 6.4256C111.72 6.23976 111.224 6.16886 110.733 6.21965H106.467ZM93.2153 46.2744H95.111C95.2028 46.2689 95.2889 46.2299 95.3519 46.1655C95.4148 46.1011 95.4497 46.0161 95.4495 45.9278V5.8305C95.4495 5.30768 95.2332 4.80628 94.848 4.43659C94.4629 4.0669 93.9405 3.85921 93.3958 3.85921H90.2815C90.1952 3.85296 90.1097 3.87867 90.0426 3.93104C89.9754 3.98341 89.9317 4.05848 89.9204 4.14082L84.7975 34.4683C84.7877 34.5015 84.7705 34.5322 84.7472 34.5584C84.7238 34.5846 84.6947 34.6056 84.6621 34.62C84.6188 34.6193 84.5767 34.6067 84.5406 34.5836C84.5046 34.5606 84.4763 34.5281 84.459 34.49L79.3812 4.03251C79.3699 3.95017 79.3262 3.8751 79.2591 3.82273C79.1919 3.77035 79.1064 3.74465 79.0201 3.7509H75.8155C75.2708 3.7509 74.7485 3.95859 74.3633 4.32828C73.9782 4.69796 73.7618 5.19937 73.7618 5.72219V45.8845C73.7618 45.9764 73.7999 46.0646 73.8676 46.1296C73.9353 46.1946 74.0271 46.2311 74.1229 46.2311H75.996C76.0918 46.2311 76.1836 46.1946 76.2514 46.1296C76.3191 46.0646 76.3571 45.9764 76.3571 45.8845V36.7212L76.1766 6.39373C76.1803 6.35248 76.1977 6.31345 76.2261 6.2823C76.2545 6.25114 76.2925 6.22947 76.3346 6.22042H77.2147L82.0894 35.2698C82.1759 35.7824 82.4513 36.2481 82.8656 36.5821C83.2798 36.9161 83.8052 37.0962 84.3461 37.0895H84.8652C85.4061 37.0962 85.9316 36.9161 86.3458 36.5821C86.76 36.2481 87.0355 35.7824 87.122 35.2698L91.9966 6.28541H92.8768C92.9187 6.28541 92.9589 6.30139 92.9885 6.32983C93.0181 6.35826 93.0348 6.39683 93.0348 6.43705L92.8768 36.7646V45.9278C92.8766 46.0161 92.9115 46.1011 92.9744 46.1655C93.0374 46.2299 93.1235 46.2689 93.2153 46.2744ZM166.931 46.2741H164.99C164.904 46.2742 164.821 46.243 164.758 46.1867C164.696 46.1303 164.657 46.0532 164.652 45.9708L163.614 37.0892H154.586L153.548 45.9708C153.543 46.0532 153.504 46.1303 153.442 46.1867C153.379 46.243 153.296 46.2742 153.21 46.2741H151.246C151.194 46.2759 151.141 46.2649 151.094 46.2422C151.046 46.2195 151.006 46.1858 150.976 46.1441C150.94 46.0607 150.94 45.9675 150.976 45.8841L155.489 8.2347C155.628 7.00148 156.238 5.86126 157.2 5.03344C158.163 4.20562 159.41 3.74868 160.702 3.75056H161.966C162.052 3.75038 162.135 3.78162 162.198 3.83795C162.261 3.89428 162.299 3.97146 162.305 4.05383L167.27 45.8841C167.305 45.9675 167.305 46.0607 167.27 46.1441C167.234 46.1967 167.182 46.2374 167.122 46.2607C167.061 46.2839 166.995 46.2886 166.931 46.2741ZM154.835 34.6196H163.275L159.958 6.24175C159.448 6.31822 158.979 6.55206 158.62 6.90781C158.262 7.26356 158.034 7.72181 157.972 8.21304L154.835 34.6196ZM67.1796 46.2743H65.2613C65.1768 46.2699 65.0966 46.237 65.0347 46.1816C64.9728 46.1262 64.9332 46.0516 64.9228 45.971L63.9072 37.0894H54.8801L53.8645 45.971C53.8535 46.0553 53.8106 46.1327 53.7441 46.1886C53.6775 46.2445 53.5919 46.275 53.5034 46.2743H51.5626C51.5136 46.2726 51.4656 46.26 51.4225 46.2375C51.3794 46.2149 51.3424 46.183 51.3144 46.1443C51.2926 46.1042 51.2812 46.0596 51.2812 46.0144C51.2812 45.9691 51.2926 45.9245 51.3144 45.8844L55.8279 8.23495C55.9722 7.03437 56.5586 5.92275 57.4813 5.10055C58.4041 4.27835 59.6025 3.79967 60.8606 3.75081H62.2598C62.3458 3.75063 62.4286 3.78187 62.4915 3.8382C62.5544 3.89453 62.5926 3.97172 62.5983 4.05409L67.5632 45.8844C67.5983 45.9678 67.5983 46.061 67.5632 46.1443C67.5255 46.2059 67.4663 46.2527 67.3961 46.2765C67.3259 46.3003 67.2492 46.2995 67.1796 46.2743ZM55.1058 34.6199H63.5687L60.2512 6.242C59.7341 6.30024 59.2539 6.52833 58.8919 6.8876C58.53 7.24688 58.3086 7.71524 58.2653 8.21329L55.1058 34.6199ZM125.049 46.2741H126.945C126.994 46.2771 127.043 46.2703 127.09 46.2542C127.136 46.2381 127.179 46.2131 127.215 46.1806C127.251 46.1481 127.279 46.1089 127.299 46.0654C127.318 46.0218 127.328 45.9749 127.328 45.9275V4.0539C127.322 3.96578 127.282 3.88309 127.215 3.8227C127.148 3.76231 127.059 3.72879 126.967 3.72896C126.369 3.72896 125.795 3.95719 125.372 4.36344C124.949 4.76969 124.711 5.32068 124.711 5.89521V45.9275C124.711 46.0158 124.746 46.1008 124.809 46.1653C124.871 46.2297 124.958 46.2686 125.049 46.2741ZM141.659 46.2741H139.786C139.69 46.2741 139.599 46.2376 139.531 46.1726C139.463 46.1076 139.425 46.0194 139.425 45.9275V6.22015H132.768C132.721 6.22312 132.675 6.21691 132.631 6.20192C132.587 6.18692 132.547 6.16346 132.513 6.13299C132.48 6.10251 132.453 6.06568 132.434 6.02477C132.416 5.98387 132.406 5.93977 132.406 5.89521V5.24533C132.406 4.84317 132.573 4.45747 132.869 4.1731C133.165 3.88872 133.567 3.72896 133.986 3.72896H148.633C148.725 3.72879 148.813 3.76231 148.88 3.8227C148.948 3.88309 148.988 3.96578 148.994 4.0539V4.46548C148.997 4.69204 148.953 4.9169 148.865 5.12704C148.776 5.33717 148.646 5.5284 148.48 5.68961C148.314 5.85082 148.116 5.97882 147.898 6.06618C147.681 6.15353 147.447 6.1985 147.211 6.19848H141.975V45.9275C141.976 46.0124 141.944 46.0946 141.886 46.1585C141.828 46.2224 141.747 46.2635 141.659 46.2741Z"
          fill="#0C111D"/>
    <path d="M0.0863994 16.2929C0.200576 15.2833 0.396761 14.2838 0.673163 13.3035C1.34713 10.5021 2.92702 7.97708 5.18673 6.08986C7.16191 4.37636 9.74973 3.46052 12.411 3.53316C15.0722 3.6058 17.6016 4.66132 19.4722 6.47979C21.9321 8.86267 24.1437 11.4405 26.4908 13.9317C26.9196 14.3866 26.8519 14.7115 26.3328 15.0365C26.1392 15.1956 25.9131 15.3142 25.6689 15.3845C25.4248 15.4548 25.168 15.4753 24.9151 15.4447C24.6622 15.4141 24.4187 15.3331 24.2004 15.2068C23.982 15.0805 23.7936 14.9118 23.6472 14.7115C21.8192 12.7619 20.0589 10.7906 18.1632 8.90599C17.3784 8.0556 16.4089 7.38061 15.323 6.9285C14.2372 6.47639 13.0613 6.25815 11.8781 6.28913C10.6949 6.3201 9.53322 6.59954 8.47464 7.10778C7.41607 7.61603 6.48637 8.34073 5.75093 9.23093C3.96845 11.2323 2.93559 13.749 2.81711 16.3796C2.76162 20.2542 3.30153 24.1155 4.41943 27.839C5.54988 32.0879 7.19342 36.1955 9.31665 40.0783C9.74405 40.9087 10.2265 41.7118 10.761 42.4829C11.0081 42.7994 11.305 43.0771 11.6411 43.306C12.3182 43.7826 12.8147 43.6743 13.108 42.9378C13.4014 42.2013 13.6045 41.2698 13.8528 40.4466C14.2139 39.1902 14.575 37.9337 14.9812 36.6773C15.1166 36.2657 15.3197 35.8758 15.5002 35.4642C15.9738 34.2464 16.8397 33.2053 17.9721 32.4923C19.1045 31.7794 20.4443 31.4317 21.7967 31.5H24.0535C24.5499 31.5 24.7756 31.63 24.8659 32.1499C25.3624 34.9227 25.904 37.6738 26.4682 40.4466C26.6439 41.1799 26.8624 41.9031 27.1227 42.6128C27.4838 43.696 28.0705 43.8476 28.9281 43.0461C29.5156 42.4494 30.0375 41.796 30.4853 41.0965C32.2992 38.1167 33.753 34.9479 34.8183 31.6516C36.2461 27.7925 37.2003 23.7868 37.6619 19.7156C38.1809 16.3586 37.3761 12.9365 35.4051 10.1191C34.6895 9.04057 33.7208 8.13788 32.5765 7.48334C31.4321 6.8288 30.144 6.44059 28.8153 6.34982C27.5014 6.37499 26.2085 6.67048 25.0239 7.21631C24.5048 7.41128 24.2791 7.21632 24.076 6.86971C23.9322 6.62031 23.8492 6.34284 23.8333 6.05819C23.8174 5.77354 23.8689 5.48914 23.9841 5.22638C24.0992 4.96362 24.275 4.72936 24.4981 4.54123C24.7212 4.35309 24.9858 4.21599 25.2721 4.14024C27.0648 3.48065 29.023 3.35521 30.891 3.7803C32.7591 4.2054 34.4502 5.16127 35.7436 6.52312C38.2685 8.88586 39.8091 12.0514 40.0766 15.4264C40.3694 19.4536 39.8953 23.4984 38.6774 27.3624C37.4694 32.5702 35.5177 37.5929 32.8775 42.2879C32.2582 43.3379 31.4996 44.3064 30.6207 45.169C30.2507 45.6522 29.7416 46.0211 29.1561 46.2302C28.5706 46.4393 27.9342 46.4796 27.3251 46.3461C26.716 46.2127 26.1609 45.9112 25.728 45.4788C25.2951 45.0465 25.0033 44.5021 24.8885 43.9126C24.0083 41.0315 23.4441 38.0637 22.7897 35.1176C22.5188 33.8612 22.6091 33.8395 21.255 33.9695C20.5877 34.0319 19.9502 34.2661 19.41 34.6474C18.8697 35.0286 18.4468 35.5429 18.1858 36.1358C17.5294 37.5427 16.9715 38.9901 16.5158 40.4683C16.2224 41.3348 16.0419 42.2229 15.7936 43.1111C15.6619 43.9108 15.2808 44.6534 14.7007 45.2412C14.1206 45.829 13.3686 46.2343 12.5439 46.4038H12.273C11.4362 46.186 10.6535 45.8092 9.97122 45.2957C9.28894 44.7822 8.72101 44.1425 8.3011 43.4144C8.05463 43.0956 7.82854 42.7629 7.62406 42.4179C4.04494 36.1071 1.63931 29.2457 0.515189 22.1418C0.334646 21.0153 0.221807 19.8672 0.0863994 18.7408C0.0232835 17.9259 0.0232835 17.1077 0.0863994 16.2929Z"
          fill="#0C111D"/>
    <path fill-rule="evenodd" clip-rule="evenodd"
          d="M14.1691 19.6287C16.4943 21.3931 19.3746 22.3478 22.3386 22.3365H22.3385C24.5851 22.3347 26.7948 21.7872 28.7619 20.745C30.7355 19.6992 32.4002 18.1896 33.6 16.3577C33.7856 16.0668 33.8447 15.7175 33.7645 15.3852C33.6843 15.0529 33.4712 14.7642 33.1712 14.5813C33.0213 14.4916 32.8541 14.4319 32.6796 14.4058C32.505 14.3798 32.3268 14.3879 32.1556 14.4297C31.9874 14.4654 31.8285 14.5338 31.6888 14.6307C31.549 14.7276 31.4314 14.8508 31.3432 14.9929C30.5525 16.2 29.5071 17.2345 28.2743 18.0299C27.0415 18.8253 25.6488 19.3638 24.1858 19.6108C22.7229 19.8578 21.2223 19.8077 19.7807 19.4638C18.3392 19.1199 16.9888 18.4897 15.8165 17.6141C15.5363 17.4092 15.1839 17.3173 14.8342 17.3577C14.4845 17.3982 14.1649 17.5678 13.9434 17.8307C13.8335 17.9638 13.7528 18.1168 13.7063 18.2807C13.6597 18.4445 13.6483 18.6157 13.6726 18.7839C13.6916 18.9496 13.7454 19.1098 13.8308 19.255C13.9161 19.4002 14.0312 19.5273 14.1691 19.6287Z"
          fill="#A13652"/>
</svg>
