<svg viewBox="0 0 50 51" fill="none" xmlns="http://www.w3.org/2000/svg">
    <rect x="7.75" y="7.89801" width="34.5" height="34.5" rx="17.25" stroke="url(#paint0_linear_2659_18536)"
          stroke-width="3"/>
    <path fill-rule="evenodd" clip-rule="evenodd"
          d="M33.7537 18.2851C34.1523 19.0504 33.855 19.994 33.0896 20.3927C30.4981 21.7424 28.0985 24.5415 26.2871 27.1831C25.4 28.4769 24.6886 29.6809 24.1994 30.5609C23.9553 31.0002 23.7676 31.3568 23.6422 31.6011C23.5795 31.7232 23.5324 31.8171 23.5017 31.879L23.468 31.9476L23.4605 31.963C23.2141 32.4758 22.7072 32.817 22.1392 32.8492C21.571 32.8814 21.0302 32.6021 20.7275 32.1202C20.1372 31.1802 19.2038 30.3283 18.3473 29.6834C17.9302 29.3693 17.5545 29.1215 17.2857 28.9538C17.1517 28.8702 17.0455 28.8073 16.9754 28.7667L16.8987 28.7229L16.8833 28.7143C16.8823 28.7138 16.8835 28.7144 16.8833 28.7143C16.1254 28.3023 15.8443 27.3536 16.2561 26.5955C16.6679 25.8372 17.6166 25.5564 18.3749 25.9682L17.6291 27.3413C18.3749 25.9682 18.3746 25.9681 18.3749 25.9682L18.3814 25.9718L18.3922 25.9778L18.4264 25.9968C18.4546 26.0125 18.4934 26.0346 18.5419 26.0627C18.6388 26.1188 18.7743 26.1993 18.9397 26.3024C19.2696 26.5083 19.723 26.8074 20.2271 27.187C20.6998 27.543 21.2397 27.9863 21.7709 28.5064C22.2703 27.636 22.925 26.5604 23.7098 25.4158C25.5831 22.6839 28.3421 19.3419 31.6461 17.621C32.4114 17.2224 33.355 17.5197 33.7537 18.2851Z"
          fill="white"/>
    <defs>
        <linearGradient id="paint0_linear_2659_18536" x1="6.42857" y1="-1.99485" x2="47.1429" y2="46.9337"
                        gradientUnits="userSpaceOnUse">
            <stop stop-color="#D9D9D9"/>
            <stop offset="1" stop-color="#D9D9D9" stop-opacity="0"/>
        </linearGradient>
    </defs>
</svg>
