<svg viewBox="0 0 68 68" fill="none" xmlns="http://www.w3.org/2000/svg">
    <rect width="68" height="68" rx="34" fill="#F2F4F7"/>
    <path d="M19.0038 29.4599C17.6654 28.8136 17.6654 26.8691 19.0038 26.2229L33.4779 19.2343C34.125 18.9219 34.8751 18.9219 35.5221 19.2343L49.9962 26.2229C51.1653 26.7874 51.3132 28.3425 50.4398 29.1576V35.9793C50.4398 36.8782 49.7262 37.6069 48.8458 37.6069C47.9655 37.6069 47.2518 36.8782 47.2518 35.9793V30.7849L35.5221 36.4484C34.875 36.7609 34.1249 36.7609 33.4779 36.4484L19.0038 29.4599Z"
          fill="#A13652"/>
    <path d="M23.3419 37.6069V34.8099L33.4779 39.7039C34.1249 40.0163 34.875 40.0163 35.5221 39.7039L45.6578 34.81V37.6069C45.6578 43.8991 40.6622 49 34.4999 49C28.3375 49 23.3419 43.8991 23.3419 37.6069Z"
          fill="#A13652"/>
</svg>
