<svg width="708" height="261" viewBox="0 0 708 261" fill="none" xmlns="http://www.w3.org/2000/svg">
<path d="M1 301.414C47.6078 283.759 91.4279 256.309 136.491 235.323C311.848 153.656 493.486 84.864 679.641 32.201C718.052 21.3348 755.338 11.6448 794.166 3.50868C817.207 -1.31955 815.854 0.647068 800.297 10.9291C695.741 80.0347 588.593 145.348 499.844 235.224C469.382 266.072 451.573 288.145 431.802 324.269C425.566 335.661 419.892 346.915 420.033 359.986C420.118 367.939 422.615 368.023 430.318 365.625C466.359 354.408 502.898 327.958 534.854 309.725C613.125 265.067 692.913 212.095 780.32 186.843C795.911 182.338 810.934 180.313 827 180.313" stroke="#F9F1F3" stroke-width="2" stroke-linecap="round"/>
</svg>
