<svg width="290" height="299" viewBox="0 0 290 299" fill="none" xmlns="http://www.w3.org/2000/svg">
<path d="M1.0919 421.497C21.0342 397.099 36.3547 368.221 54.3981 342.487C124.612 242.348 202.334 147.27 287.627 59.5926C305.226 41.5016 322.581 24.4098 341.271 7.68126C352.362 -2.24596 352.243 -0.741752 346.973 9.80437C311.559 80.6848 273.527 150.309 253.332 227.56C246.4 254.076 243.624 271.788 244.213 297.811C244.399 306.018 244.848 313.972 249.056 321.082C251.616 325.408 253.009 324.664 256.47 320.917C272.66 303.383 284.309 277.353 296.046 257.271C324.793 208.082 351.744 153.863 391.626 112.407C398.739 105.013 406.326 99.1547 415.123 94.0756" stroke="#F9F1F3" stroke-width="2" stroke-linecap="round"/>
</svg>
