<svg viewBox="0 0 108 32" fill="none" xmlns="http://www.w3.org/2000/svg">
    <path d="M20.9398 8.91797H18.4699V22.3655H20.9398V8.91797Z" fill="white"/>
    <path d="M15.6327 9.67045H13.1629V23.1177H15.6327V9.67045Z" fill="white"/>
    <path d="M10.3257 10.5105H7.85585V23.9603H10.3257V10.5105Z" fill="white"/>
    <path d="M5.01869 11.3599H2.54883L2.54884 24.8114H5.0187L5.01869 11.3599Z" fill="white"/>
    <path d="M86.7692 15.0787L82.7911 10.6501H80.4655V20.9039H82.8937V14.3618L86.5255 18.2378H86.9742L90.5436 14.3618V20.9039H92.9717V10.6501H90.6461L86.7692 15.0787Z"
          fill="white"/>
    <path d="M104.54 10.6501L98.5215 17.3147V10.6501H96.0933V20.9039H98.3179L104.336 14.2393V20.9039H106.764V10.6501H104.54Z"
          fill="white"/>
    <path d="M67.387 14.4021C67.387 16.0347 68.2786 17.3207 69.6472 17.8599L67.0809 20.9039H70.0529L72.3874 18.1347H74.9136V20.9039H77.3417V10.6501H71.16C68.8552 10.6501 67.387 12.2289 67.387 14.4021ZM74.9151 12.9085V15.9406H71.6102C70.5076 15.9406 69.9162 15.3252 69.9162 14.423C69.9162 13.5209 70.5284 12.9055 71.6102 12.9055L74.9151 12.9085Z"
          fill="white"/>
    <path d="M56.1036 12.7009C55.955 16.2273 55.212 18.5036 53.7572 18.5036H53.3932V20.9652L53.781 20.9861C56.698 21.1489 58.3103 18.5858 58.5749 12.9876H62.4117V20.9039H64.8354V10.6501H56.1854L56.1036 12.7009Z"
          fill="white"/>
    <path d="M46.9634 10.5068C43.6793 10.5068 41.3166 12.7831 41.3166 15.7764C41.3166 18.8727 43.8873 21.0684 46.9634 21.0684C50.1672 21.0684 52.6562 18.7502 52.6562 15.7764C52.6562 12.8026 50.1672 10.5068 46.9634 10.5068ZM46.9634 18.6068C45.1073 18.6068 43.8428 17.397 43.8428 15.7764C43.8428 14.1155 45.1088 12.9385 46.9634 12.9385C48.8179 12.9385 50.1256 14.1692 50.1256 15.7764C50.1256 17.3835 48.8001 18.6068 46.9634 18.6068Z"
          fill="white"/>
    <path d="M38.7414 10.6694H30.1716L30.0899 12.7202C29.968 15.6746 29.1983 18.4842 27.7435 18.5245L27.0703 18.5454V23.2215L29.5192 23.2166V20.9053H38.0266V23.2166H40.4963V18.5245H38.7414V10.6694ZM36.3132 18.5245H31.1316C32.0083 17.1922 32.4779 15.2639 32.5596 13.0085H36.3132V18.5245Z"
          fill="white"/>
</svg>
