<svg viewBox="0 0 55 32" fill="none" xmlns="http://www.w3.org/2000/svg">
    <path d="M52.8698 15.9993C52.8698 24.0764 46.3072 30.7193 38.1605 30.7193C30.0892 30.7193 23.4512 24.0764 23.4512 15.9993C23.4512 7.92217 30.0138 1.2793 38.085 1.2793C46.3072 1.2793 52.8698 7.92217 52.8698 15.9993Z"
          fill="#F9B50B"/>
    <path d="M33.1811 16.0748C33.1811 15.018 33.0302 13.9611 32.8793 12.9798H23.8275C23.9029 12.4514 24.0538 11.9985 24.2046 11.3946H32.2759C32.125 10.8662 31.8987 10.3378 31.6724 9.80935H24.8081C25.0344 9.28094 25.3361 8.82801 25.6378 8.22412H30.8427C30.5409 7.69571 30.1638 7.1673 29.7112 6.63889H26.8447C27.2973 6.11048 27.7499 5.65755 28.3534 5.12914C25.7887 2.71355 22.3188 1.2793 18.4718 1.2793C10.4759 1.50576 3.83789 7.92217 3.83789 15.9993C3.83789 24.0764 10.4005 30.7193 18.5472 30.7193C22.3942 30.7193 25.7887 29.2096 28.4288 26.8695C28.9569 26.4165 29.4094 25.8881 29.9375 25.2842H26.9202C26.543 24.8313 26.1659 24.3029 25.8641 23.7745H30.9935C31.2953 23.3216 31.597 22.7931 31.8233 22.1892H24.9589C24.7326 21.7363 24.5063 21.2079 24.3555 20.604H32.4267C32.8793 19.2452 33.1811 17.7355 33.1811 16.0748Z"
          fill="#C8191C"/>
    <path d="M23.7532 19.7746L23.9795 18.4158C23.9041 18.4158 23.7532 18.4913 23.6023 18.4913C23.0743 18.4913 22.9989 18.1894 23.0743 18.0384L23.5269 15.3209H24.3567L24.583 13.8111H23.8286L23.9795 12.9053H22.3954C22.3954 12.9053 21.4902 18.0384 21.4902 18.6423C21.4902 19.5481 22.0183 20.0011 22.7726 20.0011C23.2252 20.0011 23.6023 19.8501 23.7532 19.7746Z"
          fill="white"/>
    <path d="M24.2812 17.283C24.2812 19.4721 25.7899 20.0005 26.9968 20.0005C28.1283 20.0005 28.6563 19.7741 28.6563 19.7741L28.9581 18.2643C28.9581 18.2643 28.1283 18.6418 27.2985 18.6418C25.5636 18.6418 25.8653 17.3585 25.8653 17.3585H29.0335C29.0335 17.3585 29.2598 16.3771 29.2598 15.9242C29.2598 14.9429 28.7318 13.6596 26.9968 13.6596C25.4882 13.5841 24.2812 15.3203 24.2812 17.283ZM26.9968 15.0184C27.8266 15.0184 27.6757 15.9997 27.6757 16.0752H25.9408C26.0162 15.9997 26.1671 15.0184 26.9968 15.0184Z"
          fill="white"/>
    <path d="M36.8758 19.7736L37.1775 18.0374C37.1775 18.0374 36.4232 18.4149 35.8198 18.4149C34.7637 18.4149 34.2357 17.5845 34.2357 16.6032C34.2357 14.716 35.1409 13.7346 36.2724 13.7346C37.0267 13.7346 37.7056 14.1876 37.7056 14.1876L37.9319 12.5268C37.9319 12.5268 37.0267 12.1494 36.1215 12.1494C34.3111 12.1494 32.5762 13.7346 32.5762 16.6786C32.5762 18.6413 33.4814 19.9246 35.3672 19.9246C36.0461 20.0001 36.8758 19.7736 36.8758 19.7736Z"
          fill="white"/>
    <path d="M15.229 13.5859C14.1729 13.5859 13.3432 13.8879 13.3432 13.8879L13.1169 15.2467C13.1169 15.2467 13.7958 14.9447 14.8518 14.9447C15.3798 14.9447 15.8324 15.0202 15.8324 15.4731C15.8324 15.7751 15.757 15.8506 15.757 15.8506H15.0781C13.7203 15.8506 12.2871 16.379 12.2871 18.1907C12.2871 19.6249 13.1923 19.9269 13.7958 19.9269C14.8518 19.9269 15.3798 19.2475 15.4553 19.2475L15.3798 19.8514H16.6622L17.2656 15.5486C17.2656 13.6614 15.757 13.5859 15.229 13.5859ZM15.5307 17.0583C15.5307 17.2848 15.3798 18.5681 14.4746 18.5681C14.0221 18.5681 13.8712 18.1907 13.8712 17.9642C13.8712 17.5868 14.0975 17.0583 15.3044 17.0583C15.4553 17.0583 15.5307 17.0583 15.5307 17.0583Z"
          fill="white"/>
    <path d="M18.7745 19.9232C19.1516 19.9232 21.1129 19.9987 21.1129 17.8851C21.1129 15.9224 19.2271 16.2999 19.2271 15.545C19.2271 15.1676 19.5288 15.0166 20.0568 15.0166C20.2831 15.0166 21.1129 15.0921 21.1129 15.0921L21.3392 13.6578C21.3392 13.6578 20.8112 13.5068 19.8305 13.5068C18.699 13.5068 17.4921 13.9598 17.4921 15.545C17.4921 17.3567 19.4534 17.2057 19.4534 17.8851C19.4534 18.338 18.9253 18.4135 18.5482 18.4135C17.8693 18.4135 17.115 18.187 17.115 18.187L16.8887 19.6213C17.0395 19.7723 17.4921 19.9232 18.7745 19.9232Z"
          fill="white"/>
    <path d="M49.8509 12.376L49.5492 14.4896C49.5492 14.4896 48.9457 13.7347 48.0405 13.7347C46.6073 13.7347 45.4004 15.471 45.4004 17.5091C45.4004 18.7924 46.0039 20.0757 47.3616 20.0757C48.2668 20.0757 48.8703 19.4718 48.8703 19.4718L48.7948 20.0002H50.3789L51.5104 12.527L49.8509 12.376ZM49.0966 16.4523C49.0966 17.2826 48.7194 18.415 47.8142 18.415C47.2862 18.415 46.9845 17.962 46.9845 17.1317C46.9845 15.8484 47.5125 15.0935 48.2668 15.0935C48.7948 15.169 49.0966 15.5464 49.0966 16.4523Z"
          fill="white"/>
    <path d="M6.70396 19.8473L7.60915 14.2612L7.76001 19.8473H8.81606L10.8527 14.2612L10.023 19.8473H11.6825L12.9648 12.374H10.4001L8.81606 16.9787L8.74063 12.374H6.47766L5.19531 19.8473H6.70396Z"
          fill="white"/>
    <path d="M30.8424 19.8488C31.295 17.2823 31.3704 15.1686 32.5019 15.5461C32.6527 14.5647 32.879 14.1118 33.0299 13.7344H32.7282C32.0493 13.7344 31.4458 14.6402 31.4458 14.6402L31.5967 13.8099H30.088L29.1074 19.8488H30.8424Z"
          fill="white"/>
    <path d="M40.4985 13.584C39.4424 13.584 38.6127 13.8859 38.6127 13.8859L38.3864 15.2447C38.3864 15.2447 39.0653 14.9428 40.1213 14.9428C40.6494 14.9428 41.102 15.0182 41.102 15.4712C41.102 15.7731 41.0265 15.8486 41.0265 15.8486H40.3476C38.9899 15.8486 37.5566 16.377 37.5566 18.1887C37.5566 19.623 38.4618 19.9249 39.0653 19.9249C40.1213 19.9249 40.6494 19.2455 40.7248 19.2455L40.6494 19.8494H42.0826L42.686 15.5467C42.686 13.6595 41.0265 13.584 40.4985 13.584ZM40.8757 17.0564C40.8757 17.2829 40.7248 18.5661 39.8196 18.5661C39.367 18.5661 39.2162 18.1887 39.2162 17.9622C39.2162 17.5848 39.4424 17.0564 40.6494 17.0564C40.8002 17.0564 40.8002 17.0564 40.8757 17.0564Z"
          fill="white"/>
    <path d="M43.8931 19.8488C44.3457 17.2823 44.4212 15.1686 45.5527 15.5461C45.7035 14.5647 45.9298 14.1118 46.0807 13.7344H45.779C45.1001 13.7344 44.4966 14.6402 44.4966 14.6402L44.6475 13.8099H43.1388L42.1582 19.8488H43.8931Z"
          fill="white"/>
</svg>
