<svg viewBox="0 0 55 32" fill="none" xmlns="http://www.w3.org/2000/svg">
    <path d="M48.1539 8.46289H38.1426C38.7258 11.77 41.9333 14.8826 45.4324 14.8826H53.4026C53.4998 14.5908 53.4998 14.1045 53.4998 13.8127C53.4998 10.8946 51.0699 8.46289 48.1539 8.46289Z"
          fill="url(#paint0_linear_1672_3917)"/>
    <path d="M39.0176 15.4658V23.5391H43.8775V19.2593H48.1542C50.4869 19.2593 52.5281 17.6057 53.2085 15.4658H39.0176Z"
          fill="#4FAD50"/>
    <path d="M21.9121 8.46289V23.4422H26.1888C26.1888 23.4422 27.258 23.4422 27.8412 22.3723C30.7571 16.6334 31.6319 14.8826 31.6319 14.8826H32.2151V23.4422H37.075V8.46289H32.7983C32.7983 8.46289 31.7291 8.56017 31.1459 9.53285C28.716 14.4935 27.3552 17.0225 27.3552 17.0225H26.772V8.46289H21.9121Z"
          fill="#4FAD50"/>
    <path d="M1.5 23.5389V8.55957H6.35989C6.35989 8.55957 7.72067 8.55957 8.49825 10.6995C10.4422 16.341 10.6366 17.1192 10.6366 17.1192C10.6366 17.1192 11.0254 15.7574 12.7749 10.6995C13.5525 8.55957 14.9133 8.55957 14.9133 8.55957H19.7732V23.5389H14.9133V15.4656H14.3301L11.6086 23.5389H9.47023L6.7487 15.4656H6.16551V23.5389H1.5Z"
          fill="#4FAD50"/>
    <defs>
        <linearGradient id="paint0_linear_1672_3917" x1="38.1253" y1="11.7188" x2="53.4654" y2="11.7188"
                        gradientUnits="userSpaceOnUse">
            <stop stop-color="#27B1E6"/>
            <stop offset="1" stop-color="#148ACA"/>
        </linearGradient>
    </defs>
</svg>
