<svg viewBox="0 0 55 32" fill="none" xmlns="http://www.w3.org/2000/svg">
    <path d="M49.6423 8.36523H46.4259C45.4535 8.36523 44.7055 8.66465 44.2567 9.63776L38.123 23.6356H42.4615C42.4615 23.6356 43.2095 21.7642 43.3591 21.3151C43.8079 21.3151 48.0715 21.3151 48.6699 21.3151C48.8195 21.8391 49.1935 23.5607 49.1935 23.5607H53.0831L49.6423 8.36523ZM44.5559 18.1712C44.9299 17.2729 46.2015 13.9045 46.2015 13.9045C46.2015 13.9793 46.5755 13.0062 46.7251 12.4822L47.0243 13.8296C47.0243 13.8296 47.8471 17.4975 47.9967 18.246H44.5559V18.1712Z"
          fill="#3362AB"/>
    <path d="M38.4225 18.6203C38.4225 21.7642 35.5801 23.8601 31.1669 23.8601C29.2969 23.8601 27.5017 23.4858 26.5293 23.0367L27.1277 19.5934L27.6513 19.8179C28.9977 20.4168 29.8953 20.6413 31.5409 20.6413C32.7377 20.6413 34.0093 20.1922 34.0093 19.1442C34.0093 18.4706 33.4857 18.0214 31.8401 17.2729C30.2693 16.5243 28.1749 15.3267 28.1749 13.1559C28.1749 10.1617 31.0921 8.14062 35.2061 8.14062C36.7769 8.14062 38.1233 8.44004 38.9461 8.81432L38.3477 12.1079L38.0485 11.8085C37.3005 11.5091 36.3281 11.2097 34.9069 11.2097C33.3361 11.2845 32.5881 11.9582 32.5881 12.557C32.5881 13.2307 33.4857 13.7547 34.9069 14.4284C37.3005 15.5512 38.4225 16.8238 38.4225 18.6203Z"
          fill="#3362AB"/>
    <path d="M1.91992 8.51524L1.99472 8.21582H8.42754C9.32514 8.21582 9.99834 8.51524 10.2227 9.48835L11.6439 16.2253C10.2227 12.6322 6.93153 9.71291 1.91992 8.51524Z"
          fill="#F9B50B"/>
    <path d="M20.696 8.36392L14.1884 23.5594H9.77516L6.03516 10.8341C8.72796 12.5558 10.972 15.2505 11.7948 17.1219L12.2436 18.6938L16.2828 8.28906H20.696V8.36392Z"
          fill="#3362AB"/>
    <path d="M22.4149 8.28906H26.5289L23.9109 23.5594H19.7969L22.4149 8.28906Z" fill="#3362AB"/>
</svg>
