<svg width="20" height="20" viewBox="0 0 20 20" fill="none" xmlns="http://www.w3.org/2000/svg">
<path d="M3.28997 7.89537C2.71063 7.62142 2.71065 6.79714 3.28997 6.5232L9.55482 3.56075C9.83489 3.42832 10.1596 3.42832 10.4396 3.56075L16.7045 6.5232C17.2105 6.7625 17.2745 7.42171 16.8965 7.76723V10.659C16.8965 11.04 16.5876 11.3489 16.2066 11.3489C15.8255 11.3489 15.5166 11.04 15.5166 10.659V8.45706L10.4396 10.8578C10.1596 10.9903 9.83489 10.9903 9.55482 10.8578L3.28997 7.89537Z" fill="#98A2B3"/>
<path d="M5.16762 11.3489V10.1632L9.55482 12.2378C9.83489 12.3702 10.1596 12.3702 10.4396 12.2378L14.8267 10.1633V11.3489C14.8267 14.0162 12.6644 16.1784 9.99716 16.1784C7.32988 16.1784 5.16762 14.0162 5.16762 11.3489Z" fill="#98A2B3"/>
</svg>
