<svg viewBox="0 0 30 30" fill="none" xmlns="http://www.w3.org/2000/svg">
    <path fill-rule="evenodd" clip-rule="evenodd"
          d="M28 15C28 22.1797 22.1797 28 15 28C7.8203 28 2 22.1797 2 15C2 7.8203 7.8203 2 15 2C22.1797 2 28 7.8203 28 15ZM30 15C30 23.2843 23.2843 30 15 30C6.71573 30 0 23.2843 0 15C0 6.71573 6.71573 0 15 0C23.2843 0 30 6.71573 30 15ZM8.94118 15C8.94118 11.614 11.5633 8.94118 14.7107 8.94118C16.2538 8.94118 17.6603 9.57673 18.7023 10.6256L20.1212 9.21605C18.7279 7.81357 16.8199 6.94118 14.7107 6.94118C10.3807 6.94118 6.94118 10.5891 6.94118 15C6.94118 19.4109 10.3807 23.0588 14.7107 23.0588C16.8199 23.0588 18.7279 22.1864 20.1212 20.7839L18.7023 19.3744C17.6603 20.4233 16.2538 21.0588 14.7107 21.0588C11.5633 21.0588 8.94118 18.386 8.94118 15Z"
          fill="#CDC5C7" fill-opacity="0.74"/>
</svg>
