<svg viewBox="0 0 50 50" fill="none" xmlns="http://www.w3.org/2000/svg">
    <rect width="50" height="50" rx="10" fill="#F4F7FA"/>
    <path d="M36.2061 19.3435C35.7359 17.8966 34.1801 17.0204 32.7482 16.8195C27.5979 16.2724 22.4041 16.2724 17.2538 16.8195C15.8219 17.0204 14.2618 17.8881 13.7959 19.3435C13.0628 23.0785 13.0628 26.9204 13.7959 30.6555C14.266 32.1002 15.8219 32.9786 17.2538 33.1794C22.4041 33.7266 27.5979 33.7266 32.7482 33.1794C34.1801 32.9786 35.7402 32.1109 36.2061 30.6555C36.9391 26.9204 36.9391 23.0785 36.2061 19.3435ZM22.1885 29.5035V20.4933L29.5232 24.9984C27.0505 26.5179 24.6505 27.9904 22.1885 29.5035Z"
          fill="#E60000"/>
</svg>
