<svg width="16" height="16" viewBox="0 0 16 16" fill="none" xmlns="http://www.w3.org/2000/svg">
    <path fill-rule="evenodd" clip-rule="evenodd"
          d="M11.0056 12.0658C11.2985 12.3586 11.7733 12.3586 12.0662 12.0658C12.3591 11.7729 12.3591 11.298 12.0662 11.0051L9.06104 7.99989L12.0662 4.99469C12.3591 4.70179 12.3591 4.22692 12.0662 3.93403C11.7733 3.64113 11.2985 3.64113 11.0056 3.93403L8.00038 6.93923L4.99517 3.93403C4.70228 3.64113 4.22741 3.64113 3.93451 3.93403C3.64162 4.22692 3.64162 4.70179 3.93451 4.99469L6.93972 7.99989L3.93451 11.0051C3.64162 11.298 3.64162 11.7729 3.93451 12.0658C4.22741 12.3586 4.70228 12.3586 4.99517 12.0658L8.00038 9.06055L11.0056 12.0658Z"
          fill="currentColor"/>
</svg>
