<svg width="24" height="24" viewBox="0 0 24 24" fill="none" xmlns="http://www.w3.org/2000/svg">
<path fill-rule="evenodd" clip-rule="evenodd" d="M15.576 3.11108C14.6576 3.11108 13.7768 3.46654 13.1274 4.09925L9.04338 8.07825C7.16767 9.90572 5.837 12.1955 5.19364 14.7028L4.9963 15.4718C4.79163 16.2695 5.53319 16.992 6.35188 16.7926L7.14123 16.6003C9.71468 15.9735 12.0649 14.677 13.9406 12.8495L18.0246 8.87055C18.674 8.23784 19.0389 7.37969 19.0389 6.4849C19.0389 4.62159 17.4885 3.11108 15.576 3.11108ZM14.4023 7.6284C15.0275 8.23748 15.7522 8.49693 16.2898 8.40578L16.9187 7.79305C17.2748 7.44611 17.4748 6.97555 17.4748 6.4849C17.4748 5.46317 16.6247 4.63489 15.576 4.63489C15.0724 4.63489 14.5894 4.8298 14.2333 5.17675L13.6044 5.78947C13.5109 6.31322 13.7772 7.01932 14.4023 7.6284Z" fill="currentColor"/>
<path fill-rule="evenodd" clip-rule="evenodd" d="M3.91992 20.127C3.91992 19.7062 4.27004 19.3651 4.70194 19.3651H19.2995C19.7314 19.3651 20.0815 19.7062 20.0815 20.127C20.0815 20.5478 19.7314 20.8889 19.2995 20.8889H4.70194C4.27004 20.8889 3.91992 20.5478 3.91992 20.127Z" fill="currentColor"/>
</svg>
