<svg width="20" height="20" viewBox="0 0 20 20" fill="none" xmlns="http://www.w3.org/2000/svg">
<path fill-rule="evenodd" clip-rule="evenodd" d="M1.91512 16.2169C1.91512 17.0774 2.59653 17.7732 3.4379 17.7732C3.4379 17.7732 11.111 17.7796 12.2018 17.7732C14.5756 17.8004 16.0728 17.1062 16.7206 15.3131C16.8933 14.8557 17.8531 11.1351 17.8627 11.0903C18.1346 9.78187 17.226 8.63819 15.9016 8.63819H12.509C12.2962 8.63819 12.1571 8.46704 12.2002 8.2543C12.2002 8.2543 12.237 7.5537 12.373 6.56517C12.509 5.57665 12.509 4.78807 12.509 4.10986C12.509 3.43325 12.333 2.70385 11.8851 2.25918C11.5572 1.93127 11.3381 1.90568 11.3381 1.90568C11.2017 1.83604 11.0525 1.79512 10.8997 1.78544C10.7469 1.77576 10.5937 1.79753 10.4496 1.8494C10.3055 1.90128 10.1736 1.98215 10.0621 2.08702C9.95049 2.19189 9.86161 2.31854 9.80092 2.45912C9.80092 2.45912 7.61273 7.56169 7.43198 7.93279C7.40953 7.97726 7.38387 8.02002 7.3552 8.06076L5.41974 12.3076C5.34776 12.4659 5.11423 12.4131 5.11423 12.242V8.63819H3.4379C3.02964 8.64283 2.63992 8.80937 2.35439 9.1012C2.06885 9.39304 1.91086 9.78629 1.91512 10.1946V16.2169Z" fill="white"/>
</svg>
