<svg width="20" height="20" viewBox="0 0 20 20" fill="none" xmlns="http://www.w3.org/2000/svg">
<path d="M14.5 2.5V4M5.5 2.5V4M8 10H7.20883M13.0002 10H12.209M8.00016 13.75H7.20898M13.0002 13.75H12.209" stroke="white" stroke-width="1.87624" stroke-linecap="round" stroke-linejoin="round"/>
<path d="M2.875 10.1824C2.875 6.91445 2.875 5.28046 3.81409 4.26523C4.75318 3.25 6.26462 3.25 9.2875 3.25L10.7125 3.25C13.7354 3.25 15.2468 3.25 16.1859 4.26523C17.125 5.28046 17.125 6.91445 17.125 10.1824V10.5676C17.125 13.8355 17.125 15.4695 16.1859 16.4848C15.2468 17.5 13.7354 17.5 10.7125 17.5H9.2875C6.26462 17.5 4.75318 17.5 3.81409 16.4848C2.875 15.4695 2.875 13.8355 2.875 10.5676V10.1824Z" stroke="white" stroke-width="1.87624" stroke-linecap="round" stroke-linejoin="round"/>
<path d="M3.25 7L16.75 7" stroke="white" stroke-width="1.87624" stroke-linecap="round" stroke-linejoin="round"/>
</svg>
