<svg width="20" height="20" viewBox="0 0 20 20" fill="none" xmlns="http://www.w3.org/2000/svg">
<path d="M11.4503 7.68292C11.4503 8.53323 10.761 9.22253 9.91071 9.22253C9.0604 9.22253 8.37109 8.53323 8.37109 7.68292C8.37109 6.83262 9.0604 6.14331 9.91071 6.14331C10.761 6.14331 11.4503 6.83262 11.4503 7.68292Z" fill="white"/>
<path d="M14.5315 13.6235C15.567 15.1001 16.0623 15.8864 15.7673 16.5195C15.7377 16.5829 15.703 16.6442 15.6636 16.7027C15.237 17.3363 14.1344 17.3363 11.9292 17.3363H7.89304C5.68787 17.3363 4.58528 17.3363 4.15865 16.7027C4.11925 16.6442 4.08461 16.5829 4.05502 16.5195C3.75996 15.8864 4.25529 15.1001 5.2908 13.6235" stroke="white" stroke-width="1.88" stroke-linecap="round" stroke-linejoin="round"/>
<path d="M10.8445 13.9899C10.594 14.2311 10.2593 14.366 9.91088 14.366C9.5625 14.366 9.22775 14.2311 8.9773 13.9899C6.68385 11.7676 3.61034 9.28507 5.1092 5.68086C5.91962 3.7321 7.86499 2.48511 9.91088 2.48511C11.9568 2.48511 13.9021 3.7321 14.7126 5.68086C16.2095 9.28052 13.1436 11.7753 10.8445 13.9899Z" stroke="white" stroke-width="1.88"/>
</svg>
