<svg width="18" height="18" viewBox="0 0 18 18" fill="none" xmlns="http://www.w3.org/2000/svg">
    <path fill-rule="evenodd" clip-rule="evenodd"
          d="M2.51855 5.23886C2.56813 8.52755 2.90467 11.6792 5.18882 13.9012C5.83886 14.5336 6.38734 14.6596 7.31049 14.6596H8.55512C9.47827 14.6596 10.0268 14.5336 10.6768 13.9012C11.0624 13.5261 11.3925 13.1245 11.6751 12.7002C13.279 12.5887 14.4022 11.9538 15.1349 11.0855C15.9222 10.1525 16.201 9.01945 16.2299 8.16542C16.2474 7.64754 16.1594 7.04273 15.5892 6.68003C15.3485 6.52692 15.0756 6.45628 14.8177 6.41859C14.5566 6.38042 14.2583 6.3692 13.9341 6.3692H13.3159C13.3318 5.99505 13.3414 5.61787 13.3471 5.23886C13.3685 3.81818 13.0426 3.52588 11.548 3.52588H4.31759C2.82304 3.52588 2.49713 3.81818 2.51855 5.23886ZM13.2202 7.77019C13.1025 8.96253 12.8825 10.106 12.4713 11.1582C13.2175 10.9576 13.721 10.5887 14.0642 10.182C14.6002 9.54676 14.8086 8.74216 14.8297 8.11811C14.8347 7.96966 14.8237 7.8896 14.8147 7.85153C14.7856 7.83988 14.7254 7.82097 14.6151 7.80485C14.4549 7.78143 14.2366 7.77019 13.9341 7.77019H13.2202Z"
          fill="currentColor"/>
</svg>
