<svg width="18" height="18" viewBox="0 0 18 18" fill="none" xmlns="http://www.w3.org/2000/svg">
    <path fill-rule="evenodd" clip-rule="evenodd"
          d="M8.23574 5.08226C8.23574 4.62609 8.57831 4.2563 9.00089 4.2563C9.42346 4.2563 9.76603 4.62609 9.76603 5.08226V5.50001C9.51511 5.46656 9.25953 5.44934 9.00022 5.44934C8.74137 5.44934 8.48624 5.4665 8.23574 5.49983V5.08226ZM7.03146 5.79466V5.08226C7.03146 3.90812 7.9132 2.9563 9.00089 2.9563C10.0886 2.9563 10.9703 3.90812 10.9703 5.08226V5.79514C13.1387 6.58103 14.7706 8.62856 15.1175 11.1297C15.1934 11.6767 14.7383 12.1267 14.186 12.1267H3.81445C3.26217 12.1267 2.80707 11.6767 2.88294 11.1297C3.2299 8.62805 4.86241 6.58019 7.03146 5.79466ZM2.11914 13.5891C2.11914 13.0771 2.4302 12.6621 2.81392 12.6621L15.1861 12.6621C15.5698 12.6621 15.8809 13.0771 15.8809 13.5891C15.8809 14.1011 15.5698 14.5161 15.1861 14.5161L2.81392 14.5161C2.4302 14.5161 2.11914 14.1011 2.11914 13.5891Z"
          fill="currentColor"/>
</svg>
