<svg width="84" height="84" viewBox="0 0 84 84" fill="none" xmlns="http://www.w3.org/2000/svg">
<rect width="84" height="84" rx="42" fill="white"/>
<path d="M23.4754 36.3917C21.822 35.5934 21.822 33.1914 23.4754 32.3931L41.3551 23.7602C42.1544 23.3742 43.081 23.3742 43.8803 23.7602L61.76 32.3931C63.2043 33.0904 63.3869 35.0114 62.3081 36.0183V44.4452C62.3081 45.5555 61.4265 46.4557 60.339 46.4557C59.2515 46.4557 58.37 45.5555 58.37 44.4452V38.0286L43.8803 45.0247C43.081 45.4106 42.1544 45.4106 41.3551 45.0247L23.4754 36.3917Z" fill="#004278"/>
<path d="M28.8342 46.4557V43.0006L41.3551 49.0461C42.1544 49.432 43.081 49.432 43.8803 49.0461L56.4009 43.0007V46.4557C56.4009 54.2285 50.2299 60.5295 42.6175 60.5295C35.0052 60.5295 28.8342 54.2285 28.8342 46.4557Z" fill="#004278"/>
</svg>
