<svg width="127" height="76" viewBox="0 0 127 76" fill="none" xmlns="http://www.w3.org/2000/svg">
<path d="M8.78025 12.28C8.93601 11.7501 9.49181 11.4468 10.0217 11.6026C10.5515 11.7583 10.8548 12.3141 10.6991 12.844L8.78025 12.28ZM72.469 1.5955L72.3709 0.600327L72.4782 0.589757L72.5852 0.602278L72.469 1.5955ZM85.758 37.1173L85.9951 38.0888L85.758 37.1173ZM125.081 18.0919L125.322 17.1213C125.856 17.2536 126.182 17.7922 126.053 18.3269L125.081 18.0919ZM121.335 37.8403C121.206 38.3771 120.665 38.7071 120.128 38.5773C119.592 38.4475 119.262 37.9071 119.391 37.3703L121.335 37.8403ZM106.188 14.4407C105.652 14.3079 105.325 13.7656 105.458 13.2295C105.591 12.6935 106.133 12.3666 106.669 12.4994L106.188 14.4407ZM85.5209 36.1458C94.9889 33.835 106.025 30.7249 124.493 17.2834L125.67 18.9004C106.949 32.5261 95.66 35.7299 85.9951 38.0888L85.5209 36.1458ZM10.6991 12.844C5.47726 30.6087 3.41224 43.7802 3.6425 53.2327C3.87322 62.7042 6.39838 68.2449 10.1258 71.0502C13.8501 73.8532 19.0783 74.1526 25.2593 72.4177C31.4231 70.6876 38.3442 66.9807 45.2221 62.0786C58.9846 52.27 72.3338 37.8519 78.8479 25.5613C82.1217 19.3843 83.5625 13.9427 82.6994 9.94911C82.2763 7.99157 81.2984 6.36837 79.666 5.12945C78.0161 3.8773 75.6369 2.97295 72.3528 2.58873L72.5852 0.602278C76.1021 1.01373 78.8564 2.00432 80.8751 3.53631C82.9111 5.08155 84.1366 7.1317 84.6542 9.52662C85.6725 14.2379 83.9435 20.2178 80.615 26.4979C73.9245 39.1216 60.3386 53.761 46.3829 63.7073C39.4018 68.6828 32.2681 72.5278 25.7998 74.3433C19.3486 76.1541 13.3673 75.9929 8.92318 72.6482C4.48225 69.306 1.88013 63.0121 1.64309 53.2814C1.40559 43.5318 3.53234 30.1334 8.78025 12.28L10.6991 12.844ZM72.5671 2.59068C60.0756 3.82197 54.665 14.2931 56.6307 23.4371C57.6119 28.0015 60.4347 32.2212 65.1624 34.7861C69.8929 37.3526 76.6332 38.3149 85.5209 36.1458L85.9951 38.0888C76.7523 40.3445 69.4786 39.4032 64.2086 36.5441C58.9357 33.6834 55.7713 28.9557 54.6753 23.8574C52.4867 13.6761 58.5621 1.96146 72.3709 0.600327L72.5671 2.59068ZM126.053 18.3269L121.335 37.8403L119.391 37.3703L124.109 17.8569L126.053 18.3269ZM124.841 19.0626L106.188 14.4407L106.669 12.4994L125.322 17.1213L124.841 19.0626Z" fill="#F9F1F3"/>
</svg>
