<svg width="837" height="607" viewBox="0 0 837 607" fill="none" xmlns="http://www.w3.org/2000/svg">
<path fill-rule="evenodd" clip-rule="evenodd" d="M668.074 540.864C677.729 540.468 686.522 531.176 694.087 514.861C718.946 474.946 753.427 391.444 784.245 292.569C828.724 149.862 848.732 29.1733 828.932 23.002C810.272 17.1858 762.914 115.164 720.291 245.921C711.927 106.911 679.701 -1.37494 645.877 0.0131973C625.963 0.830507 609.715 39.4944 600.344 99.5722C584.276 54.7466 557.407 23.8955 522.314 16.1452C459.408 2.25238 389.209 66.814 347.314 168.401C291.974 96.2947 212.296 58.8205 137.899 79.0184C29.4629 108.457 -26.6935 249.265 12.4699 393.521C51.6334 537.776 171.286 630.854 279.722 601.415C318.982 590.757 351.389 565.5 374.9 530.766C384.254 537.524 394.508 542.269 405.58 544.714C478.088 560.728 560.285 472.508 597.66 343.499C609.775 458.357 638.306 542.086 668.074 540.864Z" fill="url(#paint0_linear_2169_24576)"/>
<defs>
<linearGradient id="paint0_linear_2169_24576" x1="813.402" y1="199.928" x2="15.9234" y2="450.743" gradientUnits="userSpaceOnUse">
<stop stop-color="#254885"/>
<stop offset="1" stop-color="#2F5CA9"/>
</linearGradient>
</defs>
</svg>
