<svg viewBox="0 0 16 16" fill="none" xmlns="http://www.w3.org/2000/svg">
    <path fill-rule="evenodd" clip-rule="evenodd"
          d="M4.92291 12.5303L8.92291 8.53033C9.2158 8.23744 9.2158 7.76256 8.92291 7.46967L4.92291 3.46967C4.63002 3.17678 4.15514 3.17678 3.86225 3.46967C3.56936 3.76256 3.56936 4.23744 3.86225 4.53033L7.33192 8L3.86225 11.4697C3.56935 11.7626 3.56935 12.2374 3.86225 12.5303C4.15514 12.8232 4.63001 12.8232 4.92291 12.5303ZM8.92291 12.5303L12.9229 8.53033C13.2158 8.23744 13.2158 7.76256 12.9229 7.46967L8.92291 3.46967C8.63002 3.17678 8.15514 3.17678 7.86225 3.46967C7.56936 3.76256 7.56936 4.23744 7.86225 4.53033L11.3319 8L7.86225 11.4697C7.56936 11.7626 7.56936 12.2374 7.86225 12.5303C8.15514 12.8232 8.63002 12.8232 8.92291 12.5303Z"
          fill="currentColor"/>
</svg>
