<svg width="24" height="25" viewBox="0 0 24 25" fill="none" xmlns="http://www.w3.org/2000/svg">
<circle cx="11.9998" cy="12.5" r="9.00366" stroke="currentColor" stroke-width="1.8"/>
<path d="M9.29883 15.2015C8.80177 15.2015 8.39883 15.6044 8.39883 16.1015C8.39883 16.5985 8.80177 17.0015 9.29883 17.0015V15.2015ZM14.701 17.0015C15.1981 17.0015 15.601 16.5985 15.601 16.1015C15.601 15.6044 15.1981 15.2015 14.701 15.2015L14.701 17.0015ZM14.4688 12.3183C14.8018 11.9493 14.7727 11.3802 14.4037 11.0471C14.0347 10.7141 13.4656 10.7432 13.1326 11.1122L14.4688 12.3183ZM12.9549 12.6522L13.623 13.2553L13.623 13.2553L12.9549 12.6522ZM11.0449 12.6522L10.3768 13.2553V13.2553L11.0449 12.6522ZM10.8673 11.1122C10.5342 10.7432 9.96514 10.7141 9.59616 11.0471C9.22718 11.3802 9.19805 11.9493 9.5311 12.3183L10.8673 11.1122ZM12.8999 7.99817C12.8999 7.50111 12.497 7.09817 11.9999 7.09817C11.5029 7.09817 11.0999 7.50111 11.0999 7.99817L12.8999 7.99817ZM9.29883 17.0015H14.701L14.701 15.2015H9.29883V17.0015ZM13.1326 11.1122L12.2868 12.0492L13.623 13.2553L14.4688 12.3183L13.1326 11.1122ZM11.713 12.0492L10.8673 11.1122L9.5311 12.3183L10.3768 13.2553L11.713 12.0492ZM12.2868 12.0492C12.172 12.1764 12.0818 12.2763 12.0024 12.3599C11.9225 12.444 11.8695 12.4947 11.8325 12.526C11.7586 12.5884 11.8342 12.5004 11.9999 12.5004V14.3004C12.4454 14.3004 12.7733 14.0876 12.9945 13.9007C13.1995 13.7273 13.4155 13.4852 13.623 13.2553L12.2868 12.0492ZM10.3768 13.2553C10.5844 13.4852 10.8003 13.7273 11.0054 13.9007C11.2265 14.0876 11.5545 14.3004 11.9999 14.3004V12.5004C12.1656 12.5004 12.2412 12.5884 12.1674 12.526C12.1304 12.4947 12.0773 12.444 11.9975 12.3599C11.9181 12.2763 11.8278 12.1764 11.713 12.0492L10.3768 13.2553ZM12.8999 13.4004V7.99817L11.0999 7.99817V13.4004H12.8999Z" fill="currentColor"/>
</svg>
