<svg width="24" height="25" viewBox="0 0 24 25" fill="none" xmlns="http://www.w3.org/2000/svg">
<path d="M15.0221 5.27344L11.9997 14.8018L8.97759 5.27344C5.38248 6.50915 2.67773 9.86129 2.67773 13.7043C2.67773 16.019 3.62204 18.1535 5.14975 19.7267H9.53146L9.99082 17.7347C4.75616 15.6837 5.74595 9.3281 7.64363 8.29066C7.86888 8.35839 11.1696 19.6799 11.1696 19.6799H12.8297C12.8297 19.6799 16.1306 8.35839 16.3557 8.29066C18.2535 9.3281 19.2429 15.6837 14.0083 17.7347L14.4678 19.7267H18.8495C20.3774 18.1535 21.3217 16.019 21.3217 13.7043C21.3217 9.86129 18.617 6.50915 15.0221 5.27344Z" fill="#254885"/>
</svg>
