<svg width="23" height="23" viewBox="0 0 23 23" fill="none" xmlns="http://www.w3.org/2000/svg">
<path d="M11.5 1.25049C6.73641 1.25049 2.875 4.92137 2.875 9.44991C2.875 11.7134 3.83971 13.7628 5.39997 15.2465C6.96066 16.731 10.6375 18.8793 10.8531 21.1341C10.8855 21.4722 11.1429 21.7491 11.5 21.7491C11.8571 21.7491 12.1145 21.4722 12.1469 21.1341C12.3625 18.8793 16.0393 16.731 17.6 15.2465C19.1603 13.7628 20.125 11.7134 20.125 9.44991C20.125 4.92137 16.2636 1.25049 11.5 1.25049Z" fill="#FF4433"/>
<path d="M11.5031 12.3207C13.1703 12.3207 14.5218 11.0358 14.5218 9.45085C14.5218 7.8659 13.1703 6.58105 11.5031 6.58105C9.83593 6.58105 8.48438 7.8659 8.48438 9.45085C8.48438 11.0358 9.83593 12.3207 11.5031 12.3207Z" fill="white"/>
</svg>
