<svg viewBox="0 0 16 16" fill="none" xmlns="http://www.w3.org/2000/svg">
    <path d="M1.5175 5.99633C0.957698 5.73162 0.957718 4.93513 1.5175 4.67043L7.57108 1.80789C7.8417 1.67992 8.15542 1.67992 8.42604 1.80789L14.4796 4.67043C14.9686 4.90166 15.0304 5.53864 14.6652 5.87251V8.66671C14.6652 9.0349 14.3667 9.33338 13.9985 9.33338C13.6303 9.33338 13.3318 9.0349 13.3318 8.66671V6.53908L8.42604 8.85887C8.15542 8.98684 7.8417 8.98684 7.57108 8.85887L1.5175 5.99633Z"
          fill="#98A2B3"/>
    <path d="M3.33184 9.33338V8.18771L7.57108 10.1923C7.8417 10.3203 8.15542 10.3203 8.42604 10.1923L12.6652 8.18776V9.33338C12.6652 11.9107 10.5758 14 7.9985 14C5.42117 14 3.33184 11.9107 3.33184 9.33338Z"
          fill="#98A2B3"/>
</svg>
