<svg viewBox="0 0 16 16" fill="none" xmlns="http://www.w3.org/2000/svg">
    <path d="M9.99903 1.99999C9.63084 1.99999 9.33237 2.29847 9.33237 2.66666C9.33237 3.03485 9.63084 3.33333 9.99903 3.33333C10.3492 3.33333 10.696 3.4023 11.0195 3.53631C11.3431 3.67033 11.637 3.86675 11.8847 4.11438C12.1323 4.362 12.3287 4.65597 12.4627 4.9795C12.5967 5.30304 12.6657 5.6498 12.6657 5.99999C12.6657 6.36818 12.9642 6.66666 13.3324 6.66666C13.7006 6.66666 13.999 6.36818 13.999 5.99999C13.999 5.47471 13.8956 4.95456 13.6946 4.46926C13.4935 3.98396 13.1989 3.543 12.8275 3.17157C12.456 2.80013 12.0151 2.50549 11.5298 2.30448C11.0445 2.10346 10.5243 1.99999 9.99903 1.99999Z"
          fill="#98A2B3"/>
    <path d="M10.0709 4.03543C9.70826 3.9715 9.36248 4.21361 9.29855 4.5762C9.23461 4.9388 9.47673 5.28457 9.83932 5.34851C10.0473 5.38518 10.2383 5.48675 10.385 5.63866C10.5317 5.79057 10.6266 5.98502 10.6559 6.19414C10.7072 6.55875 11.0443 6.81278 11.4089 6.76154C11.7735 6.7103 12.0275 6.37319 11.9763 6.00858C11.9077 5.52062 11.6864 5.0669 11.3441 4.71245C11.0018 4.35799 10.5561 4.121 10.0709 4.03543Z"
          fill="#98A2B3"/>
    <path fill-rule="evenodd" clip-rule="evenodd"
          d="M11.0339 14.755C10.0733 14.7196 7.35285 14.344 4.50393 11.4951C1.655 8.64619 1.2794 5.92575 1.24405 4.96512C1.19019 3.50148 2.31139 2.07935 3.60712 1.52403C3.91117 1.39373 4.27943 1.41757 4.57055 1.62993C5.63641 2.40741 6.37284 3.5829 7.00505 4.50778C7.29063 4.92557 7.22239 5.496 6.83444 5.83181L5.53367 6.79783C5.40475 6.89358 5.36188 7.06761 5.43921 7.20836C5.73351 7.74405 6.25782 8.54127 6.8578 9.14125C7.45843 9.74188 8.29329 10.3 8.8658 10.6275C9.01427 10.7124 9.20103 10.6632 9.2949 10.5202L10.1411 9.23123C10.4656 8.7994 11.0716 8.70505 11.512 9.00991C12.4504 9.65931 13.5449 10.3824 14.3464 11.4088C14.5741 11.7005 14.6079 12.0818 14.4721 12.3988C13.9142 13.7004 12.5025 14.809 11.0339 14.755Z"
          fill="#98A2B3"/>
</svg>
