<svg width="20" height="20" viewBox="0 0 20 20" fill="none" xmlns="http://www.w3.org/2000/svg">
    <path fill-rule="evenodd" clip-rule="evenodd"
          d="M13.75 9.375C13.75 11.7912 11.7912 13.75 9.375 13.75C6.95875 13.75 5 11.7912 5 9.375C5 6.95875 6.95875 5 9.375 5C11.7912 5 13.75 6.95875 13.75 9.375ZM13.0818 14.4076C12.0447 15.1728 10.7627 15.625 9.375 15.625C5.92322 15.625 3.125 12.8268 3.125 9.375C3.125 5.92322 5.92322 3.125 9.375 3.125C12.8268 3.125 15.625 5.92322 15.625 9.375C15.625 10.7627 15.1728 12.0447 14.4076 13.0818L17.5379 16.2121C17.904 16.5782 17.904 17.1718 17.5379 17.5379C17.1718 17.904 16.5782 17.904 16.2121 17.5379L13.0818 14.4076Z"
          fill="currentColor"/>
</svg>
