<svg width="512" height="512" viewBox="0 0 512 512" fill="none" xmlns="http://www.w3.org/2000/svg">
<rect width="512" height="512" rx="130" fill="#A13652"/>
<path d="M93.2351 185.503C94.1636 177.306 95.7592 169.191 98.0071 161.233C103.488 138.489 116.337 117.989 134.715 102.668C150.779 88.7563 171.825 81.3209 193.468 81.9106C215.111 82.5004 235.683 91.0698 250.895 105.833C270.901 125.179 288.888 146.108 307.976 166.333C311.463 170.026 310.913 172.664 306.691 175.302C305.117 176.595 303.278 177.557 301.292 178.128C299.306 178.698 297.218 178.865 295.161 178.616C293.104 178.368 291.125 177.71 289.349 176.685C287.573 175.66 286.041 174.29 284.85 172.664C269.983 156.836 255.667 140.832 240.25 125.531C233.867 118.627 225.982 113.147 217.151 109.476C208.32 105.806 198.757 104.034 189.135 104.285C179.512 104.537 170.064 106.806 161.455 110.932C152.846 115.058 145.285 120.942 139.303 128.169C124.807 144.417 116.407 164.85 115.443 186.206C114.992 217.663 119.383 249.012 128.475 279.242C137.668 313.737 151.035 347.085 168.303 378.609C171.779 385.35 175.702 391.871 180.049 398.131C182.059 400.701 184.474 402.955 187.207 404.814C192.713 408.683 196.751 407.803 199.137 401.824C201.523 395.844 203.175 388.282 205.194 381.599C208.131 371.398 211.067 361.198 214.371 350.997C215.472 347.656 217.124 344.49 218.592 341.148C222.444 331.261 229.486 322.809 238.696 317.021C247.905 311.232 258.801 308.41 269.8 308.964H288.154C292.192 308.964 294.027 310.019 294.761 314.24C298.799 336.752 303.204 359.087 307.793 381.599C309.221 387.552 310.999 393.424 313.115 399.186C316.052 407.979 320.824 409.21 327.798 402.703C332.577 397.859 336.821 392.554 340.463 386.875C355.215 362.683 367.038 336.956 375.702 310.195C387.314 278.864 395.075 246.343 398.828 213.29C403.049 186.036 396.504 158.253 380.474 135.38C374.655 126.623 366.776 119.295 357.47 113.981C348.163 108.667 337.687 105.515 326.881 104.778C316.196 104.983 305.681 107.381 296.046 111.813C291.825 113.396 289.989 111.813 288.337 108.999C287.168 106.974 286.493 104.722 286.363 102.411C286.234 100.1 286.653 97.7906 287.59 95.6574C288.526 93.5241 289.955 91.6222 291.77 90.0948C293.584 88.5674 295.737 87.4543 298.065 86.8393C312.644 81.4843 328.57 80.466 343.762 83.9171C358.955 87.3683 372.708 95.1287 383.227 106.185C403.762 125.367 416.291 151.067 418.467 178.468C420.848 211.164 416.992 244.002 407.087 275.373C397.263 317.653 381.39 358.43 359.918 396.548C354.881 405.072 348.712 412.935 341.564 419.939C338.555 423.861 334.415 426.856 329.653 428.554C324.891 430.252 319.715 430.579 314.761 429.495C309.808 428.411 305.293 425.964 301.773 422.454C298.252 418.943 295.879 414.524 294.945 409.738C287.787 386.347 283.198 362.253 277.876 338.335C275.673 328.134 276.407 327.958 265.395 329.013C259.967 329.52 254.783 331.421 250.389 334.517C245.996 337.612 242.556 341.787 240.434 346.6C235.095 358.023 230.558 369.773 226.852 381.775C224.466 388.809 222.997 396.02 220.978 403.231C219.907 409.723 216.808 415.753 212.09 420.525C207.372 425.296 201.257 428.587 194.549 429.963H192.346C185.541 428.195 179.175 425.136 173.626 420.967C168.077 416.798 163.458 411.604 160.043 405.693C158.039 403.106 156.2 400.404 154.537 397.603C125.429 346.367 105.865 290.662 96.7223 232.988C95.254 223.843 94.3363 214.521 93.2351 205.376C92.7218 198.761 92.7218 192.118 93.2351 185.503Z" fill="white"/>
<path fill-rule="evenodd" clip-rule="evenodd" d="M207.799 212.474C226.724 226.834 250.166 234.604 274.29 234.512H274.289C292.574 234.497 310.559 230.042 326.569 221.559C342.632 213.048 356.181 200.761 365.946 185.851C367.457 183.483 367.938 180.641 367.285 177.936C366.632 175.231 364.898 172.882 362.456 171.393C361.236 170.663 359.875 170.177 358.454 169.965C357.034 169.753 355.583 169.819 354.19 170.159C352.821 170.45 351.528 171.007 350.39 171.795C349.253 172.584 348.296 173.587 347.578 174.743C341.143 184.567 332.634 192.988 322.601 199.461C312.567 205.935 301.231 210.318 289.325 212.328C277.418 214.338 265.205 213.93 253.472 211.131C241.74 208.332 230.748 203.204 221.208 196.077C218.927 194.409 216.059 193.661 213.212 193.99C210.366 194.319 207.765 195.7 205.962 197.84C205.068 198.923 204.411 200.169 204.033 201.502C203.654 202.835 203.56 204.229 203.758 205.597C203.913 206.946 204.351 208.251 205.046 209.432C205.74 210.614 206.677 211.649 207.799 212.474Z" fill="white"/>
</svg>
