<svg width="174" height="250" viewBox="0 0 174 250" fill="none" xmlns="http://www.w3.org/2000/svg">
<path d="M117.877 -21.1893L-0.809035 100.526C-365.903 -188.457 584.983 330.319 -53.4827 165.997L-135.894 249.428" stroke="white" stroke-linecap="round"/>
<circle cx="61.8387" cy="190.72" r="22.7302" transform="rotate(-15 61.8387 190.72)" fill="white"/>
<path d="M49.201 189.095C48.1064 188.8 47.8313 187.342 48.743 186.669L58.6022 179.383C59.0429 179.058 59.6051 178.951 60.1343 179.094L71.971 182.284C72.9271 182.542 73.2579 183.686 72.7187 184.421L73.6838 189.533C73.811 190.207 73.3792 190.854 72.7194 190.979C72.0596 191.103 71.4217 190.658 71.2945 189.985L70.5596 186.091L62.5697 191.996C62.129 192.321 61.5668 192.427 61.0376 192.285L49.201 189.095Z" fill="#FDE1AE"/>
<path d="M53.6049 194.587L53.2091 192.491L61.4982 194.725C62.0274 194.867 62.5896 194.761 63.0303 194.435L69.9344 189.334L70.3301 191.43C71.2203 196.146 68.1979 200.675 63.5794 201.547C58.9608 202.419 54.4951 199.303 53.6049 194.587Z" fill="#FDE1AE"/>
</svg>
