<svg viewBox="0 0 391 319" fill="none" xmlns="http://www.w3.org/2000/svg">
    <path d="M323.841 -1.35473L181.824 144.287C-255.04 -201.504 882.771 419.254 118.795 222.629L20.1841 322.461"
          stroke="white" stroke-width="1.19658" stroke-linecap="round"/>
    <circle cx="276.506" cy="137.192" r="35.2991" transform="rotate(-15 276.506 137.192)" fill="white"/>
    <path d="M257.119 134.899C255.402 134.436 254.97 132.15 256.401 131.093L271.868 119.663C272.56 119.152 273.442 118.985 274.272 119.209L292.842 124.214C294.342 124.618 294.861 126.414 294.015 127.566L295.529 135.587C295.729 136.644 295.051 137.659 294.016 137.854C292.981 138.05 291.98 137.351 291.781 136.295L290.628 130.187L278.093 139.45C277.401 139.961 276.519 140.127 275.689 139.903L257.119 134.899Z"
          fill="#FDE1AE"/>
    <path d="M264.028 143.515L263.407 140.227L276.412 143.731C277.242 143.955 278.124 143.788 278.815 143.277L289.647 135.273L290.268 138.562C291.664 145.961 286.923 153.067 279.677 154.435C272.431 155.803 265.425 150.914 264.028 143.515Z"
          fill="#FDE1AE"/>
</svg>
