<svg width="287" height="319" viewBox="0 0 287 319" fill="none" xmlns="http://www.w3.org/2000/svg">
<path d="M134.227 -36.193C122.691 -31.5983 -16.4188 42.4817 3.03471 51.0247C21.7541 59.2454 164.495 23.1921 138.513 62.3906C124.653 83.3012 -88.9586 264.316 52.1311 218.579C103.986 201.769 331.333 55.9373 293.856 165.52" stroke="white" stroke-width="1.13216" stroke-linecap="round"/>
<circle cx="112.793" cy="188.796" r="35.252" transform="rotate(7.96421 112.793 188.796)" fill="white"/>
<path fill-rule="evenodd" clip-rule="evenodd" d="M112.631 171.501C114.046 171.501 115.412 171.709 116.697 172.095C115.584 173.317 114.906 174.942 114.906 176.725C114.906 180.525 117.987 183.605 121.786 183.605C123.401 183.605 124.885 183.049 126.059 182.118C126.236 182.97 126.329 183.851 126.329 184.753C126.33 186.647 126.443 188.427 127.585 190.059C127.759 190.306 127.946 190.553 128.134 190.804C128.889 191.805 129.68 192.854 129.871 194.065C130.258 196.528 128.527 198.237 126.408 199.089C118.283 202.356 106.978 202.356 98.8532 199.089C96.7341 198.237 95.0033 196.528 95.3904 194.065C95.5807 192.854 96.3716 191.805 97.1266 190.804L97.1266 190.804C97.3154 190.553 97.502 190.306 97.6764 190.059C98.818 188.427 98.9314 186.647 98.9316 184.753C98.9316 177.435 105.065 171.501 112.631 171.501ZM126.136 176.672C126.136 179.05 124.208 180.978 121.83 180.978C119.451 180.978 117.523 179.05 117.523 176.672C117.523 174.294 119.451 172.366 121.83 172.366C124.208 172.366 126.136 174.294 126.136 176.672ZM104.449 203.026C109.764 203.98 115.554 203.978 120.867 203.02C120.582 205.25 117.015 207.014 112.657 207.014C108.304 207.014 104.739 205.253 104.449 203.026Z" fill="#FDE1AE"/>
</svg>
