<svg width="253" height="227" viewBox="0 0 253 227" fill="none" xmlns="http://www.w3.org/2000/svg">
<path d="M118.556 -31.9681C108.367 -27.9098 -14.5038 37.5227 2.67882 45.0685C19.2131 52.3296 145.292 20.4848 122.343 55.1077C110.101 73.5773 -78.5759 233.462 46.0441 193.064C91.8463 178.216 292.655 49.4076 259.552 146.199" stroke="white" stroke-linecap="round"/>
<circle cx="108.769" cy="157.128" r="29.5" transform="rotate(7.96421 108.769 157.128)" fill="white"/>
<path fill-rule="evenodd" clip-rule="evenodd" d="M108.637 142.655C109.821 142.655 110.963 142.829 112.038 143.151C111.107 144.174 110.539 145.534 110.539 147.026C110.539 150.206 113.117 152.783 116.297 152.783C117.648 152.783 118.891 152.318 119.873 151.538C120.022 152.251 120.1 152.989 120.1 153.745C120.101 155.33 120.195 156.819 121.151 158.185C121.297 158.391 121.453 158.598 121.611 158.808C122.243 159.646 122.905 160.524 123.064 161.537C123.388 163.598 121.939 165.029 120.166 165.742C113.367 168.475 103.906 168.475 97.1074 165.742C95.3341 165.029 93.8857 163.598 94.2096 161.537C94.3689 160.524 95.0307 159.646 95.6625 158.808C95.8205 158.598 95.9767 158.391 96.1226 158.185C97.078 156.819 97.1729 155.33 97.173 153.745C97.173 147.62 102.306 142.655 108.637 142.655ZM119.934 146.982C119.934 148.972 118.321 150.586 116.33 150.586C114.34 150.586 112.727 148.972 112.727 146.982C112.727 144.992 114.34 143.378 116.33 143.378C118.321 143.378 119.934 144.992 119.934 146.982ZM101.782 169.035C106.229 169.834 111.075 169.833 115.521 169.031C115.282 170.898 112.297 172.373 108.651 172.373C105.007 172.373 102.024 170.9 101.782 169.035Z" fill="#FDE1AE"/>
</svg>
