<svg width="107" height="277" viewBox="0 0 107 277" fill="none" xmlns="http://www.w3.org/2000/svg">
<path d="M118.556 -31.9681C108.367 -27.9098 -14.5038 37.5227 2.67882 45.0685C19.2131 52.3296 145.292 20.4848 122.343 55.1077C110.101 73.5773 -78.5759 233.462 46.0441 193.064C91.8463 178.216 292.655 49.4076 259.552 146.199" stroke="white" stroke-linecap="round"/>
<circle cx="43.7119" cy="133.762" r="22.8204" transform="rotate(7.96421 43.7119 133.762)" fill="white"/>
<path fill-rule="evenodd" clip-rule="evenodd" d="M43.5629 122.566C44.4756 122.566 45.3562 122.699 46.1848 122.947C45.4634 123.739 45.0234 124.791 45.0234 125.947C45.0234 128.406 47.0175 130.4 49.4773 130.4C50.5272 130.4 51.4922 130.037 52.2536 129.429C52.3698 129.984 52.4308 130.557 52.4308 131.145C52.431 132.371 52.5044 133.523 53.2434 134.579C53.3563 134.739 53.4771 134.899 53.5993 135.061L53.5994 135.061C54.0881 135.709 54.6001 136.388 54.7233 137.172C54.9739 138.767 53.8534 139.873 52.4816 140.425C47.2223 142.54 39.9034 142.54 34.6441 140.425C33.2723 139.873 32.1518 138.767 32.4025 137.172C32.5257 136.388 33.0376 135.709 33.5263 135.061L33.5264 135.061C33.6486 134.899 33.7694 134.739 33.8823 134.579C34.6213 133.523 34.6947 132.371 34.6949 131.145C34.6949 126.407 38.6652 122.566 43.5629 122.566ZM52.3255 125.913C52.3255 127.453 51.0774 128.701 49.5377 128.701C47.9981 128.701 46.75 127.453 46.75 125.913C46.75 124.374 47.9981 123.125 49.5377 123.125C51.0774 123.125 52.3255 124.374 52.3255 125.913ZM38.2699 142.97C41.7096 143.59 45.4582 143.59 48.8981 142.971C48.7119 144.414 46.4039 145.554 43.584 145.554C40.7639 145.554 38.4556 144.414 38.2699 142.97Z" fill="#FDE1AE"/>
</svg>
