<svg width="330" height="91" viewBox="0 0 330 91" fill="none" xmlns="http://www.w3.org/2000/svg">
<path d="M211.42 -146.587C198.448 -144.504 37.8793 -100.847 56.1442 -88.1927C73.7198 -76.0158 229.623 -81.1543 194.012 -47.83C175.015 -30.0531 -86.4554 103.736 69.8831 88.6323C127.343 83.0813 395.249 -12.8423 332.125 87.8654" stroke="white" stroke-width="1.14953" stroke-linecap="round"/>
<circle cx="59.2689" cy="34.3965" r="15.8958" transform="rotate(20.1019 59.2689 34.3965)" fill="white"/>
<path fill-rule="evenodd" clip-rule="evenodd" d="M60.8116 26.7525C61.4324 26.886 62.0119 27.1055 62.5393 27.395C61.9318 27.8283 61.4779 28.4809 61.3086 29.2679C60.9484 30.943 62.0142 32.5929 63.6893 32.9532C64.4053 33.1072 65.1166 33.0006 65.7246 32.6974C65.7228 33.0924 65.6803 33.4926 65.5942 33.8933C65.4147 34.7282 65.2959 35.5237 65.6445 36.3514C65.698 36.4765 65.7568 36.6033 65.8163 36.7316C66.0542 37.2445 66.3034 37.7819 66.2725 38.3337C66.2096 39.4563 65.2845 40.0459 64.2695 40.2206C60.3783 40.8903 55.3942 39.8184 52.1224 37.6081C51.269 37.0316 50.6681 36.1138 51.0723 35.0646C51.271 34.5489 51.7191 34.1615 52.1468 33.7917C52.2538 33.6992 52.3595 33.6078 52.4597 33.5158C53.1178 32.9045 53.3365 32.1306 53.5162 31.2957C54.2101 28.0693 57.4764 26.0352 60.8116 26.7525ZM66.287 30.3146C66.0615 31.3631 65.0287 32.0302 63.9803 31.8047C62.9318 31.5792 62.2647 30.5465 62.4901 29.498C62.7156 28.4496 63.7484 27.7824 64.7968 28.0079C65.8453 28.2334 66.5125 29.2661 66.287 30.3146ZM54.2075 39.871C56.4592 40.7964 59.0119 41.3455 61.445 41.4278C61.1067 42.3831 59.368 42.8216 57.4479 42.4086C55.5277 41.9956 54.123 40.881 54.2075 39.871Z" fill="#FDE1AE"/>
<circle cx="253.713" cy="45.6982" r="15.9373" transform="rotate(-2.86227 253.713 45.6982)" fill="white"/>
<path d="M245.294 42.7212C244.587 42.3576 244.613 41.3181 245.338 40.9907L253.17 37.4501C253.52 37.2918 253.921 37.302 254.263 37.4777L261.906 41.4094C262.524 41.727 262.582 42.5604 262.104 42.9843L262.011 46.6312C261.999 47.1118 261.608 47.4917 261.137 47.4798C260.667 47.4679 260.295 47.0687 260.307 46.5882L260.377 43.8112L254.03 46.6805C253.68 46.8388 253.279 46.8286 252.937 46.6529L245.294 42.7212Z" fill="#FDE1AE"/>
<path d="M247.503 47.1352L247.541 45.6399L252.893 48.3932C253.235 48.569 253.636 48.5791 253.986 48.4208L259.471 45.9415L259.433 47.4367C259.348 50.8006 256.608 53.46 253.314 53.3768C250.02 53.2935 247.418 50.4991 247.503 47.1352Z" fill="#FDE1AE"/>
</svg>
