<svg viewBox="0 0 25 25" fill="none" xmlns="http://www.w3.org/2000/svg">
    <path d="M1.4714 7.67438C1.53434 7.1133 1.64247 6.55782 1.79483 6.01304C2.16631 4.45618 3.03714 3.05295 4.28268 2.00415C5.37139 1.05189 6.79778 0.542916 8.26465 0.583285C9.73151 0.623653 11.1257 1.21025 12.1567 2.22085C13.5126 3.5451 14.7317 4.97771 16.0254 6.36216C16.2617 6.61498 16.2244 6.79556 15.9383 6.97614C15.8316 7.06459 15.7069 7.13047 15.5724 7.16954C15.4378 7.20861 15.2962 7.22 15.1568 7.203C15.0174 7.18599 14.8833 7.14096 14.7629 7.07079C14.6426 7.00062 14.5387 6.90687 14.458 6.79556C13.4504 5.71207 12.4802 4.61655 11.4353 3.56918C11.0026 3.09658 10.4683 2.72147 9.86975 2.47021C9.27123 2.21896 8.6231 2.09767 7.97094 2.11489C7.31878 2.1321 6.67844 2.28739 6.09496 2.56985C5.51148 2.8523 4.99903 3.25505 4.59366 3.74976C3.61117 4.86199 3.04186 6.26063 2.97656 7.72254C2.94597 9.87584 3.24357 12.0217 3.85975 14.091C4.48285 16.4523 5.38876 18.735 6.55907 20.8929C6.79465 21.3543 7.06057 21.8007 7.35518 22.2292C7.49139 22.4051 7.65506 22.5594 7.84032 22.6867C8.21349 22.9515 8.48716 22.8913 8.64887 22.482C8.81058 22.0727 8.92253 21.555 9.05936 21.0975C9.25839 20.3993 9.45742 19.7011 9.68133 19.0028C9.75596 18.7741 9.86792 18.5574 9.96743 18.3286C10.2285 17.6518 10.7058 17.0733 11.3299 16.677C11.9541 16.2808 12.6926 16.0876 13.438 16.1256H14.6819C14.9556 16.1256 15.08 16.1978 15.1297 16.4867C15.4034 18.0277 15.7019 19.5566 16.0129 21.0975C16.1098 21.5051 16.2302 21.907 16.3737 22.3014C16.5727 22.9034 16.8961 22.9876 17.3688 22.5422C17.6926 22.2106 17.9803 21.8475 18.2271 21.4587C19.227 19.8027 20.0283 18.0417 20.6155 16.2098C21.4024 14.0652 21.9284 11.839 22.1828 9.5765C22.4689 7.71089 22.0253 5.80911 20.9389 4.24335C20.5445 3.64397 20.0105 3.14231 19.3798 2.77856C18.749 2.4148 18.039 2.19906 17.3066 2.14861C16.5824 2.16261 15.8698 2.32682 15.2168 2.63016C14.9307 2.73851 14.8063 2.63016 14.6944 2.43754C14.6151 2.29894 14.5694 2.14474 14.5606 1.98655C14.5518 1.82836 14.5802 1.6703 14.6437 1.52428C14.7071 1.37825 14.804 1.24806 14.927 1.14351C15.05 1.03896 15.1958 0.962763 15.3536 0.920664C16.3417 0.554104 17.4211 0.484393 18.4507 0.720635C19.4804 0.956876 20.4125 1.48809 21.1255 2.24492C22.5172 3.558 23.3664 5.31721 23.5138 7.19283C23.6752 9.43093 23.4139 11.6788 22.7426 13.8262C22.0767 16.7204 21.0009 19.5116 19.5457 22.1208C19.2043 22.7044 18.7862 23.2426 18.3017 23.722C18.0978 23.9905 17.8172 24.1955 17.4945 24.3117C17.1718 24.428 16.821 24.4504 16.4852 24.3762C16.1495 24.302 15.8435 24.1344 15.6049 23.8942C15.3663 23.6539 15.2055 23.3513 15.1422 23.0237C14.657 21.4226 14.3461 19.7733 13.9853 18.136C13.836 17.4378 13.8858 17.4257 13.1394 17.498C12.7716 17.5326 12.4202 17.6628 12.1225 17.8747C11.8247 18.0866 11.5916 18.3724 11.4477 18.7018C11.0859 19.4837 10.7784 20.2881 10.5272 21.1096C10.3655 21.5911 10.266 22.0847 10.1291 22.5783C10.0565 23.0227 9.84649 23.4355 9.52674 23.7621C9.20699 24.0887 8.79251 24.314 8.33789 24.4082H8.18862C7.72738 24.2872 7.29593 24.0778 6.91987 23.7924C6.5438 23.507 6.23076 23.1515 5.9993 22.7469C5.86345 22.5697 5.73883 22.3848 5.62612 22.1931C3.65333 18.6859 2.32736 14.8727 1.70775 10.9248C1.60824 10.2988 1.54604 9.66077 1.4714 9.03476C1.43662 8.58192 1.43662 8.12722 1.4714 7.67438Z"
          fill="currentColor"/>
    <path fill-rule="evenodd" clip-rule="evenodd"
          d="M9.23363 9.52852C10.5153 10.5091 12.1029 11.0397 13.7366 11.0334H13.7366C14.9749 11.0324 16.1929 10.7281 17.2771 10.1489C18.365 9.56773 19.2825 8.72879 19.9439 7.71068C20.0462 7.54904 20.0788 7.35493 20.0345 7.17025C19.9903 6.98557 19.8729 6.82512 19.7075 6.7235C19.6249 6.67363 19.5327 6.64046 19.4365 6.62597C19.3403 6.61149 19.2421 6.616 19.1477 6.63923C19.055 6.6591 18.9674 6.69711 18.8904 6.75094C18.8134 6.80477 18.7486 6.87327 18.6999 6.95224C18.2641 7.62304 17.6879 8.19799 17.0084 8.64002C16.3289 9.08205 15.5612 9.38134 14.7548 9.51859C13.9485 9.65584 13.1213 9.628 12.3268 9.43687C11.5322 9.24574 10.7878 8.89557 10.1417 8.40892C9.98723 8.29508 9.793 8.24397 9.60024 8.26645C9.40747 8.28893 9.23135 8.38322 9.10924 8.52931C9.04866 8.60326 9.0042 8.68833 8.97855 8.77937C8.95289 8.87041 8.94657 8.96554 8.95997 9.05901C8.97047 9.1511 9.00013 9.24017 9.04717 9.32087C9.0942 9.40156 9.15763 9.4722 9.23363 9.52852Z"
          fill="currentColor"/>
</svg>
