<svg width="496" height="215" viewBox="0 0 496 215" fill="none" xmlns="http://www.w3.org/2000/svg">
<path fill-rule="evenodd" clip-rule="evenodd" d="M215.322 0C191.847 0 171.062 9.71053 159.355 30.558C147.987 50.802 146.408 79.4196 155.692 115.052C159.039 127.897 166.063 151.49 175.155 172.068C179.675 182.299 184.945 192.339 190.846 199.994C196.275 207.036 204.478 215 215.322 215C221.571 215 225.993 211.607 228.7 208.152C231.176 204.993 232.77 201.157 233.911 197.92C235.057 194.671 236.085 190.998 237.05 187.55L237.05 187.55L237.152 187.187C238.185 183.496 239.2 179.892 240.397 176.372C242.853 169.146 245.648 163.645 249.269 160.182C251.051 158.478 253.264 157.036 256.338 156.296C257.531 165.022 259.404 175.387 261.996 184.668C263.82 191.201 266.179 197.864 269.271 203.121C271.905 207.599 277.396 215 286.689 215C292.26 215 296.784 212.167 299.829 209.649C303.075 206.964 306.105 203.417 308.89 199.547C314.491 191.76 320.148 181.176 325.384 169.228C335.878 145.282 345.392 114.218 349.459 85.2869C353.804 54.3769 342.947 27.2923 322.396 12.6871C302.999 -1.09854 276.992 -2.33302 251.807 12.0886C241.99 4.9849 229.903 0 215.322 0ZM176.451 109.62C167.869 76.684 170.524 54.5087 178.053 41.1018C185.243 28.2983 198.016 21.5 215.322 21.5C226.367 21.5 235.374 25.8583 243.093 32.5824C247.39 36.3263 253.536 36.5293 258.032 33.5057C278.659 19.6363 297.41 21.2878 309.985 30.2244C322.882 39.3901 331.642 57.8947 328.214 82.288C324.451 109.054 315.539 138.222 305.74 160.583C300.829 171.788 295.873 180.876 291.486 186.974C289.963 189.091 288.632 190.674 287.526 191.805C285.902 188.909 284.223 184.483 282.657 178.874C279.421 167.287 277.36 153.232 276.548 144.313C276.086 139.238 272.133 135.186 267.081 134.608C253.265 133.028 242.445 136.99 234.457 144.628C227.006 151.753 222.853 161.303 220.088 169.439C218.673 173.6 217.509 177.754 216.494 181.38C215.44 185.145 214.582 188.205 213.682 190.756C213.47 191.358 213.272 191.88 213.09 192.333C211.84 191.411 210.075 189.769 207.825 186.85C203.468 181.198 199.017 172.97 194.773 163.364C186.335 144.266 179.651 121.903 176.451 109.62ZM285.241 193.736C285.21 193.749 285.194 193.758 285.194 193.759C285.194 193.76 285.202 193.756 285.219 193.748C285.225 193.745 285.233 193.741 285.241 193.736ZM289.109 194.134C289.199 194.199 289.243 194.244 289.242 194.251C289.241 194.257 289.196 194.224 289.109 194.134ZM0.894043 168.938V148.057L92.8244 2.29814H99.3617H107.942H123.468V146.419H152.068V168.938H123.468V211.929H99.3617V168.938H0.894043ZM97.7274 34.6435H99.3617V146.419H28.2689V144.781L97.7274 34.6435ZM344.176 170.474V149.592L436.106 3.83385H442.643H451.224H466.75V147.955H495.35V170.474H466.75V213.464H442.643V170.474H344.176ZM441.009 36.1792H442.643V147.955H371.551V146.317L441.009 36.1792Z" fill="#D0D5DD"/>
</svg>
