<svg viewBox="0 0 40 40" fill="none" xmlns="http://www.w3.org/2000/svg">
    <path d="M13.0377 21.8257C11.6113 22.7839 8.00611 20.5986 7.69451 17.3011C6.21863 23.9036 7.82716 35.9 18.5606 37.054C26.6599 37.9249 31.1356 31.6116 32.0256 28.9096C33.9104 23.1876 32.5221 17.5197 25.674 13.6387C21.1668 11.0844 19.6466 5.26374 19.3382 2.86586C19.3382 2.86586 14.0993 5.99894 13.2221 12.2994C12.3449 18.5998 14.464 20.8675 13.0377 21.8257Z"
          fill="url(#paint0_linear_1163_3566)"/>
    <path d="M13.0376 21.8257C11.6113 22.7839 8.00608 20.5986 7.69448 17.3011C7.39653 18.634 7.22429 20.1867 7.22745 21.8257C7.98283 27.1305 13.5096 27.4429 15.265 26.3897C20.3189 23.3574 13.3123 11.7419 17.8308 7.72915C17.8308 9.90622 22.4938 13.6387 25.674 13.6387C21.1668 11.0844 19.6465 5.26374 19.3381 2.86586C19.3381 2.86586 14.0993 5.99894 13.2221 12.2994C12.3449 18.5998 14.464 20.8675 13.0376 21.8257Z"
          fill="#FFA220"/>
    <defs>
        <linearGradient id="paint0_linear_1163_3566" x1="16.5" y1="7" x2="34.9995" y2="32.4999"
                        gradientUnits="userSpaceOnUse">
            <stop stop-color="#FF850C"/>
            <stop offset="1" stop-color="#FD5E19"/>
        </linearGradient>
    </defs>
</svg>
