<svg viewBox="0 0 30 30" fill="none" xmlns="http://www.w3.org/2000/svg">
<circle cx="15" cy="15" r="15" fill="#E4E7EC"/>
<path d="M9.17423 13.2671C8.67108 13.0204 8.6711 12.2782 9.17423 12.0315L14.6152 9.36403C14.8585 9.24478 15.1404 9.24478 15.3837 9.36403L20.8246 12.0315C21.2642 12.247 21.3197 12.8406 20.9914 13.1517V15.7555C20.9914 16.0986 20.7232 16.3768 20.3922 16.3768C20.0613 16.3768 19.793 16.0986 19.793 15.7555V13.7729L15.3837 15.9346C15.1404 16.0539 14.8585 16.0539 14.6152 15.9346L9.17423 13.2671Z" fill="white"/>
<path d="M10.805 16.3768V15.3092L14.6152 17.1772C14.8585 17.2964 15.1404 17.2964 15.3837 17.1772L19.1938 15.3092V16.3768C19.1938 18.7785 17.3159 20.7255 14.9994 20.7255C12.6829 20.7255 10.805 18.7785 10.805 16.3768Z" fill="white"/>
</svg>
