<svg width="30" height="30" viewBox="0 0 30 30" fill="none" xmlns="http://www.w3.org/2000/svg">
<path d="M24.5333 8.80004H19.8666V7.86668C19.8666 6.8372 19.0295 6 18 6H12.4C11.3705 6 10.5333 6.83715 10.5333 7.86668V8.79999H5.86668C4.83715 8.80004 4 9.63719 4 10.6667V13.4667C4 14.4962 4.83715 15.3333 5.86668 15.3333H13.3333V14.8667C13.3333 14.8054 13.3453 14.7447 13.3688 14.688C13.3922 14.6314 13.4266 14.5799 13.4699 14.5366C13.5133 14.4932 13.5647 14.4589 13.6214 14.4354C13.678 14.412 13.7387 14.3999 13.8 14.4H16.6C16.6613 14.3999 16.722 14.412 16.7787 14.4354C16.8353 14.4589 16.8868 14.4932 16.9301 14.5366C16.9734 14.5799 17.0078 14.6314 17.0313 14.688C17.0547 14.7447 17.0667 14.8054 17.0667 14.8667V15.3333H24.5334C25.5628 15.3333 26.4 14.4962 26.4 13.4667V10.6667C26.4 9.63719 25.5628 8.80004 24.5333 8.80004ZM18 8.80004H12.4V7.86668H18V8.80004ZM26.1411 15.8369C26.0633 15.7983 25.9763 15.7822 25.8898 15.7903C25.8033 15.7985 25.7209 15.8305 25.6516 15.8829C25.3199 16.1341 24.9334 16.2667 24.5332 16.2667H17.0667V17.6667C17.0667 17.728 17.0547 17.7887 17.0312 17.8453C17.0078 17.9019 16.9734 17.9534 16.9301 17.9967C16.8867 18.0401 16.8353 18.0745 16.7786 18.0979C16.722 18.1213 16.6613 18.1334 16.6 18.1333H13.8C13.7387 18.1334 13.678 18.1213 13.6213 18.0979C13.5647 18.0745 13.5132 18.0401 13.4699 17.9967C13.4266 17.9534 13.3922 17.9019 13.3687 17.8453C13.3453 17.7887 13.3333 17.728 13.3333 17.6667V16.2667H5.86668C5.46654 16.2667 5.0801 16.1341 4.7483 15.8829C4.67924 15.8301 4.59672 15.7978 4.51017 15.7897C4.42361 15.7815 4.33652 15.7979 4.25882 15.8369C4.18106 15.8756 4.11564 15.9352 4.06991 16.009C4.02419 16.0829 3.99997 16.168 4 16.2548L4 22.8C4 23.8295 4.83715 24.6667 5.86668 24.6667H24.5333C25.5628 24.6667 26.4 23.8295 26.4 22.8V16.2548C26.4 16.168 26.3758 16.0829 26.33 16.009C26.2843 15.9352 26.2189 15.8756 26.1411 15.8369Z" fill="#A13652"/>
</svg>
