<svg width="30" height="30" viewBox="0 0 30 30" fill="none" xmlns="http://www.w3.org/2000/svg">
<path d="M15 4.6875C12.066 4.6875 9.6875 7.06199 9.6875 9.99107C9.6875 12.9202 12.066 15.2946 15 15.2946C17.934 15.2946 20.3125 12.9202 20.3125 9.99107C20.3125 7.06199 17.934 4.6875 15 4.6875Z" fill="#A13652"/>
<path d="M18.1351 16.4409C16.0582 16.11 13.9418 16.11 11.8649 16.4409L11.6423 16.4764C8.71584 16.9426 6.5625 19.4626 6.5625 22.4212C6.5625 24.018 7.85918 25.3125 9.45871 25.3125H20.5413C22.1408 25.3125 23.4375 24.018 23.4375 22.4212C23.4375 19.4626 21.2842 16.9426 18.3577 16.4764L18.1351 16.4409Z" fill="#A13652"/>
</svg>
