<svg viewBox="0 0 40 40" fill="none" xmlns="http://www.w3.org/2000/svg">
    <rect x="6.5" y="6.5" width="27" height="27" rx="13.5" stroke="url(#paint0_linear_2524_18586)" stroke-width="3"/>
    <path fill-rule="evenodd" clip-rule="evenodd"
          d="M27.0053 14.5096C27.3242 15.1219 27.0863 15.8768 26.474 16.1957C24.4008 17.2755 22.4811 19.5148 21.032 21.6281C20.3223 22.6631 19.7532 23.6263 19.3619 24.3303C19.1666 24.6817 19.0164 24.967 18.9161 25.1624C18.8659 25.2601 18.8283 25.3352 18.8037 25.3848L18.7767 25.4396L18.7707 25.4519C18.5737 25.8622 18.1681 26.1351 17.7137 26.1609C17.2591 26.1867 16.8265 25.9633 16.5844 25.5777C16.1121 24.8257 15.3654 24.1442 14.6802 23.6283C14.3465 23.377 14.046 23.1788 13.8309 23.0446C13.7237 22.9777 13.6387 22.9274 13.5826 22.8949L13.5213 22.8599L13.509 22.853C13.5082 22.8526 13.5092 22.8531 13.509 22.853C12.9026 22.5234 12.6778 21.7645 13.0072 21.158C13.3367 20.5513 14.0956 20.3267 14.7022 20.6562L14.1056 21.7546C14.7022 20.6562 14.702 20.656 14.7022 20.6562L14.7075 20.659L14.7161 20.6638L14.7434 20.679C14.766 20.6916 14.7971 20.7092 14.8359 20.7317C14.9134 20.7766 15.0218 20.841 15.1541 20.9235C15.4181 21.0882 15.7808 21.3275 16.184 21.6311C16.5622 21.9159 16.9941 22.2706 17.4191 22.6867C17.8185 21.9904 18.3423 21.1299 18.9702 20.2142C20.4688 18.0287 22.6761 15.355 25.3192 13.9784C25.9315 13.6595 26.6864 13.8973 27.0053 14.5096Z"
          fill="#44AA7A"/>
    <defs>
        <linearGradient id="paint0_linear_2524_18586" x1="5.14286" y1="-1.71429" x2="37.7143" y2="37.4286"
                        gradientUnits="userSpaceOnUse">
            <stop stop-color="#44AA7A"/>
            <stop offset="1" stop-color="#44AA7A" stop-opacity="0"/>
        </linearGradient>
    </defs>
</svg>
