<svg width="62" height="69" viewBox="0 0 62 69" fill="none" xmlns="http://www.w3.org/2000/svg">
<path d="M36.5081 66.4781C35.0307 67.8614 33.0559 68.6347 31.0007 68.6347C28.9455 68.6347 26.9708 67.8614 25.4933 66.4781C11.9636 53.7335 -6.16796 39.4966 2.67424 18.8271C7.45513 7.65126 18.9314 0.5 31.0007 0.5C43.07 0.5 54.5463 7.65127 59.3272 18.8271C68.1582 39.4705 50.0712 53.7775 36.5081 66.4781Z" fill="#A13652"/>
<path d="M17.5819 26.7907C16.4232 26.2428 16.4232 24.5943 17.5819 24.0464L30.1116 18.1215C30.6717 17.8566 31.3211 17.8566 31.8812 18.1215L44.4109 24.0464C45.423 24.525 45.551 25.8434 44.795 26.5345V32.3179C44.795 33.08 44.1772 33.6978 43.4151 33.6978C42.653 33.6978 42.0352 33.08 42.0352 32.3179V27.9141L31.8812 32.7156C31.3211 32.9805 30.6717 32.9805 30.1116 32.7156L17.5819 26.7907Z" fill="white"/>
<path d="M21.3372 33.6978V31.3265L30.1116 35.4756C30.6717 35.7405 31.3211 35.7405 31.8812 35.4756L40.6554 31.3266V33.6978C40.6554 39.0323 36.3308 43.3569 30.9963 43.3569C25.6617 43.3569 21.3372 39.0323 21.3372 33.6978Z" fill="white"/>
</svg>
