<svg viewBox="0 0 1071 426" fill="none" xmlns="http://www.w3.org/2000/svg">
<path fill-rule="evenodd" clip-rule="evenodd" d="M27.0633 280.818C150.718 375.417 303.89 426.601 461.517 425.994H461.508C580.982 425.897 698.496 396.546 803.104 340.666C908.06 284.601 996.588 203.665 1060.39 105.445C1070.26 89.8509 1073.41 71.1254 1069.14 53.3087C1064.88 35.492 1053.54 20.0124 1037.59 10.2096C1029.62 5.39834 1020.73 2.1977 1011.44 0.80051C1002.16 -0.596678 992.684 -0.161578 983.581 2.07968C974.632 3.99613 966.183 7.66353 958.753 12.8565C951.323 18.0494 945.069 24.6582 940.376 32.2764C898.329 96.9902 842.734 152.457 777.175 195.101C711.616 237.745 637.549 266.618 559.75 279.859C481.952 293.1 402.149 290.415 325.489 271.976C248.829 253.537 177.014 219.755 114.674 172.807C99.7709 161.824 81.0317 156.894 62.4337 159.062C43.8357 161.23 26.8428 170.327 15.0618 184.421C9.21742 191.555 4.92804 199.762 2.45274 208.545C-0.0225689 217.328 -0.632411 226.505 0.660027 235.523C1.67347 244.407 4.53539 253 9.07316 260.785C13.6109 268.569 19.7306 275.384 27.0633 280.818Z" fill="url(#paint0_linear_1233_4414)" fill-opacity="0.21"/>
<defs>
<linearGradient id="paint0_linear_1233_4414" x1="681.681" y1="-386.305" x2="535.522" y2="426.003" gradientUnits="userSpaceOnUse">
<stop stop-color="white"/>
<stop offset="1" stop-color="white" stop-opacity="0"/>
</linearGradient>
</defs>
</svg>
