<svg width="870" height="347" viewBox="0 0 870 347" fill="none" xmlns="http://www.w3.org/2000/svg">
<path fill-rule="evenodd" clip-rule="evenodd" d="M21.9842 228.115C122.432 304.961 246.858 346.539 374.902 346.046H374.894C471.946 345.967 567.406 322.124 652.381 276.732C737.64 231.188 809.553 165.442 861.382 85.6557C869.402 72.9881 871.955 57.7769 868.49 43.304C865.025 28.831 855.819 16.2566 842.859 8.29353C836.385 4.38521 829.16 1.78525 821.621 0.650274C814.081 -0.484697 806.382 -0.131254 798.987 1.68938C791.718 3.24615 784.855 6.22528 778.819 10.4436C772.784 14.662 767.703 20.0304 763.891 26.2189C729.735 78.7875 684.574 123.845 631.318 158.486C578.063 193.126 517.897 216.581 454.699 227.337C391.502 238.093 326.676 235.911 264.403 220.933C202.13 205.955 143.793 178.512 93.1526 140.375C81.0464 131.454 65.8241 127.449 50.7164 129.21C35.6088 130.971 21.8051 138.361 12.2351 149.81C7.48754 155.605 4.00317 162.271 1.99242 169.406C-0.0183332 176.541 -0.513723 183.996 0.536156 191.321C1.3594 198.538 3.68421 205.518 7.37035 211.842C11.0565 218.165 16.0277 223.701 21.9842 228.115Z" fill="url(#paint0_linear_3050_20763)"/>
<defs>
<linearGradient id="paint0_linear_3050_20763" x1="755.009" y1="-1.74112" x2="267.882" y2="537.602" gradientUnits="userSpaceOnUse">
<stop stop-color="#98A2B3"/>
<stop offset="1" stop-color="#8E97A7"/>
</linearGradient>
</defs>
</svg>
