<svg width="18" height="18" viewBox="0 0 18 18" fill="none" xmlns="http://www.w3.org/2000/svg">
    <path d="M2.56161 7.08464C2.00549 6.812 2.00551 5.99165 2.56161 5.71902L8.57533 2.77073C8.84417 2.63892 9.15583 2.63892 9.42467 2.77073L15.4384 5.71902C15.9242 5.95718 15.9856 6.61324 15.6227 6.95711V9.83502C15.6227 10.2142 15.3262 10.5217 14.9604 10.5217C14.5947 10.5217 14.2982 10.2142 14.2982 9.83502V7.64365L9.42467 10.0329C9.15583 10.1647 8.84417 10.1647 8.57533 10.0329L2.56161 7.08464Z"
          fill="currentColor"/>
    <path d="M4.364 10.5217V9.34167L8.57533 11.4063C8.84417 11.5381 9.15583 11.5381 9.42467 11.4063L13.6359 9.34173V10.5217C13.6359 13.1762 11.5603 15.3281 8.99994 15.3281C6.43958 15.3281 4.364 13.1762 4.364 10.5217Z"
          fill="currentColor"/>
</svg>
