<svg width="18" height="18" viewBox="0 0 18 18" fill="none" xmlns="http://www.w3.org/2000/svg">
    <path d="M9 2.625C7.17439 2.625 5.69444 4.09287 5.69444 5.90357C5.69444 7.71428 7.17439 9.18214 9 9.18214C10.8256 9.18214 12.3056 7.71428 12.3056 5.90357C12.3056 4.09287 10.8256 2.625 9 2.625Z"
          fill="currentColor"/>
    <path d="M10.9507 9.89075C9.65842 9.68619 8.34158 9.68619 7.04928 9.89075L6.91076 9.91267C5.08986 10.2009 3.75 11.7587 3.75 13.5876C3.75 14.5748 4.55682 15.375 5.55209 15.375H12.4479C13.4432 15.375 14.25 14.5748 14.25 13.5876C14.25 11.7587 12.9101 10.2009 11.0892 9.91267L10.9507 9.89075Z"
          fill="currentColor"/>
</svg>
